<svg width="257" height="257" viewBox="0 0 257 257" version="1.1" xmlns="http://www.w3.org/2000/svg" xmlns:xlink="http://www.w3.org/1999/xlink"><title>closeio/logo</title><desc>Created with Sketch.</desc><defs><circle id="path-1" cx="128.5" cy="128.5" r="125.5"/><polygon id="path-3" points="0.579 0.979 77.439 0.979 77.439 160.94 0.579 160.94"/></defs><g id="closeio/logo" stroke="none" stroke-width="1" fill="none" fill-rule="evenodd"><mask id="mask-2" fill="#fff"><use xlink:href="#path-1"/></mask><use id="Mask" fill="#333" xlink:href="#path-1"/><g id="close-io-logo-icon" mask="url(#mask-2)"><g transform="translate(48.000000, 48.000000)"><path d="M160.02,84.324 L160.02,77.655 C160.02,71.964 157.638,66.55 153.353,61.649 C151.028,58.991 148.14,56.483 144.772,54.164 C142.868,52.857 140.812,51.609 138.615,50.425 C137.004,49.559 135.317,48.727 133.555,47.934 C128.967,45.865 123.898,44.057 118.439,42.559 C119.078,44.878 119.656,47.267 120.177,49.719 C120.687,52.122 121.14,54.583 121.533,57.097 C124.474,58.059 127.29,59.128 129.964,60.297 C131.207,60.843 132.424,61.408 133.604,61.998 C134.235,62.313 134.849,62.633 135.453,62.958 C137.553,64.087 139.488,65.272 141.244,66.5 C147.62,70.947 151.674,75.955 152.93,80.989 C151.674,86.023 147.62,91.029 141.244,95.478 C141.928,97.284 142.536,99.064 143.061,100.817 C143.779,103.206 144.349,105.543 144.772,107.814 C148.14,105.495 151.028,102.987 153.353,100.329 C157.638,95.427 160.02,90.014 160.02,84.324" id="Fill-1" fill="#2F577E"/><path d="M62.457,123.355 C59.72,121.172 57.002,118.846 54.324,116.385 C54.872,118.479 55.469,120.525 56.118,122.513 C58.196,122.837 60.311,123.115 62.457,123.355" id="Fill-2" fill="#2F577E"/><path d="M76.83,117.626 C77.888,118.39 78.948,119.134 80.011,119.856 C82.034,121.227 84.064,122.518 86.096,123.726 C86.354,123.879 86.614,124.027 86.871,124.177 C90.509,124.023 94.078,123.747 97.565,123.355 C99.711,123.115 101.826,122.837 103.9,122.513 C106.416,122.119 108.878,121.665 111.281,121.155 C113.733,120.635 116.12,120.054 118.439,119.419 C123.898,117.92 128.967,116.112 133.555,114.044 C133.181,111.932 132.65,109.728 131.963,107.442 C131.766,106.786 131.559,106.127 131.336,105.458 C130.918,104.206 130.459,102.946 129.964,101.68 C127.29,102.85 124.474,103.92 121.533,104.88 C119.546,105.529 117.501,106.127 115.406,106.675 C115.115,106.752 114.824,106.831 114.533,106.904 C112.24,107.486 109.895,108.011 107.492,108.471 C106.23,108.714 104.954,108.936 103.667,109.145 C99.954,109.744 96.141,110.204 92.239,110.511 C88.238,110.831 84.151,110.994 80.011,110.994 C75.869,110.994 71.784,110.831 67.783,110.511 C70.756,113.051 73.782,115.426 76.83,117.626" id="Fill-3" fill="#2F577E"/><path d="M28.057,54.535 C28.254,55.192 28.463,55.852 28.686,56.52 C29.102,57.771 29.563,59.032 30.057,60.297 C32.732,59.128 35.546,58.059 38.485,57.097 C40.474,56.449 42.519,55.852 44.616,55.303 C44.905,55.225 45.196,55.148 45.487,55.074 C47.779,54.492 50.127,53.967 52.528,53.507 C53.79,53.265 55.066,53.041 56.353,52.835 C60.066,52.233 63.881,51.775 67.783,51.466 C71.784,51.148 75.869,50.985 80.011,50.985 C84.151,50.985 88.238,51.148 92.239,51.466 C89.264,48.928 86.24,46.553 83.192,44.351 C82.134,43.589 81.073,42.843 80.011,42.123 C77.986,40.75 75.956,39.461 73.924,38.253 C73.665,38.098 73.408,37.951 73.151,37.801 C69.51,37.954 65.94,38.232 62.457,38.622 C60.311,38.862 58.196,39.141 56.118,39.465 C53.604,39.86 51.144,40.313 48.741,40.822 C46.289,41.343 43.898,41.924 41.579,42.559 C36.124,44.057 31.055,45.865 26.465,47.934 C26.839,50.046 27.368,52.249 28.057,54.535" id="Fill-4" fill="#2F577E"/><path d="M97.565,38.622 C100.3,40.806 103.018,43.133 105.698,45.594 C105.148,43.498 104.551,41.453 103.9,39.465 C101.826,39.141 99.711,38.862 97.565,38.622" id="Fill-5" fill="#2F577E"/><path d="M7.092,80.989 C8.348,75.955 12.401,70.947 18.776,66.5 C18.09,64.694 17.486,62.914 16.961,61.16 C16.239,58.771 15.671,56.434 15.25,54.164 C11.88,56.483 8.992,58.991 6.667,61.649 C2.383,66.55 0,71.964 0,77.655 L0,84.324 C0,90.014 2.383,95.427 6.667,100.329 C8.992,102.987 11.88,105.495 15.25,107.814 C17.152,109.121 19.209,110.369 21.407,111.551 C23.016,112.42 24.705,113.25 26.465,114.044 C31.055,116.112 36.124,117.92 41.579,119.419 C40.944,117.1 40.364,114.71 39.843,112.259 C39.335,109.857 38.88,107.396 38.485,104.88 C35.546,103.92 32.732,102.85 30.057,101.68 C28.815,101.135 27.597,100.571 26.416,99.98 C25.785,99.664 25.173,99.345 24.569,99.021 C22.467,97.89 20.533,96.705 18.776,95.478 C12.401,91.029 8.348,86.023 7.092,80.989" id="Fill-6" fill="#2F577E"/><path d="M97.565,123.355 C94.078,123.747 90.509,124.023 86.871,124.177 C88.743,125.27 90.611,126.298 92.479,127.244 C94.178,126.003 95.877,124.705 97.565,123.355" id="Fill-7" fill="#F4B563"/><path d="M138.944,26.77 L134.229,22.055 C130.204,18.031 124.691,15.888 118.196,15.452 C114.673,15.215 110.858,15.486 106.835,16.229 C104.565,16.65 102.226,17.219 99.839,17.937 C98.086,18.465 96.305,19.07 94.5,19.755 C89.791,21.536 84.929,23.84 80.011,26.643 C82.098,27.831 84.198,29.111 86.3,30.476 C88.359,31.813 90.422,33.235 92.479,34.733 C95.238,33.333 97.982,32.099 100.702,31.036 C101.966,30.541 103.227,30.082 104.478,29.664 C105.148,29.441 105.807,29.233 106.465,29.036 C108.75,28.348 110.952,27.818 113.066,27.443 C120.717,26.081 127.124,26.757 131.57,29.428" id="Fill-8" fill="#F4B563"/><path d="M131.57,29.428 C134.244,33.876 134.917,40.282 133.555,47.934 C135.317,48.727 137.004,49.559 138.615,50.425 C140.812,51.609 142.868,52.857 144.772,54.164 C145.512,50.141 145.785,46.328 145.547,42.803 C145.112,36.308 142.966,30.796 138.944,26.77 C138.15,25.978 137.297,25.26 136.39,24.609" id="Fill-9" fill="#F4B563"/><path d="M103.667,109.145 C104.954,108.936 106.23,108.714 107.492,108.471 C109.895,108.011 112.24,107.486 114.533,106.904 C114.824,106.831 115.115,106.752 115.406,106.675 C117.867,103.997 120.192,101.279 122.377,98.543 C123.726,96.855 125.023,95.157 126.266,93.456 C127.764,91.4 129.184,89.337 130.523,87.279 C131.887,85.177 133.168,83.08 134.358,80.989 C137.159,76.069 139.463,71.208 141.244,66.5 C139.488,65.272 137.553,64.087 135.453,62.958 C134.849,62.633 134.235,62.313 133.604,61.998 C132.424,61.408 131.207,60.843 129.964,60.297 C128.899,63.017 127.664,65.763 126.266,68.522 C125.318,70.388 124.291,72.257 123.199,74.129 C123.048,74.387 122.9,74.646 122.747,74.903 C121.539,76.935 120.249,78.965 118.878,80.989 C118.152,82.052 117.412,83.112 116.649,84.171 C114.446,87.219 112.072,90.243 109.532,93.218 C106.928,96.273 104.153,99.278 101.225,102.206 C98.3,105.134 95.295,107.907 92.239,110.511 C96.141,110.204 99.954,109.744 103.667,109.145" id="Fill-10" fill="#F4B563"/><path d="M62.457,38.622 C65.94,38.232 69.51,37.954 73.151,37.801 C71.277,36.707 69.409,35.681 67.541,34.733 C65.842,35.975 64.146,37.273 62.457,38.622" id="Fill-11" fill="#F4B563"/><path d="M28.448,132.551 C25.778,128.101 25.101,121.693 26.465,114.044 C24.705,113.25 23.016,112.42 21.407,111.551 C19.209,110.369 17.152,109.121 15.25,107.814 C14.506,111.838 14.237,115.651 14.473,119.175 C14.91,125.671 17.052,131.183 21.077,135.209 L25.793,139.922 C29.816,143.946 35.329,146.089 41.824,146.526 C45.349,146.763 49.162,146.493 53.185,145.748 C55.456,145.328 57.794,144.759 60.183,144.04 C61.936,143.513 63.715,142.908 65.521,142.224 C70.229,140.441 75.091,138.137 80.011,135.336 C77.922,134.146 75.822,132.865 73.719,131.502 C71.663,130.164 69.6,128.743 67.541,127.244 C64.784,128.646 62.038,129.88 59.318,130.943 C58.052,131.436 56.791,131.897 55.542,132.314 C54.872,132.538 54.213,132.745 53.557,132.943 C51.27,133.63 49.068,134.159 46.954,134.535 C39.303,135.897 32.898,135.221 28.448,132.551" id="Fill-12" fill="#F4B563"/><path d="M24.569,99.021 C25.173,99.345 25.785,99.664 26.416,99.98 C27.597,100.571 28.815,101.135 30.057,101.68 C31.119,98.961 32.354,96.216 33.756,93.456 C34.702,91.59 35.729,89.721 36.821,87.849 C36.972,87.592 37.121,87.333 37.273,87.075 C38.481,85.044 39.771,83.012 41.145,80.989 C41.866,79.926 42.61,78.866 43.373,77.808 C45.574,74.76 47.948,71.736 50.488,68.761 C53.093,65.705 55.865,62.701 58.797,59.774 C61.72,56.844 64.727,54.071 67.783,51.466 C63.881,51.775 60.066,52.233 56.353,52.835 C55.066,53.041 53.79,53.265 52.528,53.507 C50.127,53.967 47.779,54.492 45.487,55.074 C45.196,55.148 44.905,55.225 44.616,55.303 C42.153,57.981 39.828,60.698 37.643,63.435 C36.294,65.123 34.997,66.821 33.754,68.522 C32.256,70.578 30.836,72.64 29.496,74.698 C28.133,76.802 26.852,78.898 25.664,80.989 C22.861,85.908 20.557,90.77 18.776,95.478 C20.533,96.705 22.467,97.89 24.569,99.021" id="Fill-13" fill="#F4B563"/><path d="M37.643,98.543 C37.254,95.06 36.974,91.488 36.821,87.849 C35.729,89.721 34.702,91.59 33.756,93.456 C34.997,95.157 36.294,96.855 37.643,98.543" id="Fill-14" fill="#5CAFCD"/><path d="M28.448,29.428 C32.898,26.757 39.305,26.081 46.954,27.444 C47.747,25.684 48.58,23.996 49.447,22.385 C50.63,20.187 51.876,18.131 53.185,16.229 C49.162,15.486 45.349,15.215 41.824,15.452 C35.329,15.888 29.816,18.031 25.793,22.055 C24.999,22.85 24.282,23.704 23.63,24.609 C24.282,23.704 24.999,22.85 25.793,22.055 L21.077,26.77 C17.052,30.796 14.91,36.308 14.473,42.803 C14.237,46.328 14.506,50.141 15.25,54.164 C15.671,56.434 16.239,58.771 16.961,61.16 C17.486,62.914 18.09,64.694 18.776,66.5 C20.557,71.208 22.861,76.069 25.664,80.989 C26.852,78.898 28.133,76.802 29.496,74.698 C30.836,72.64 32.256,70.578 33.754,68.522 C32.354,65.763 31.119,63.017 30.057,60.297 C29.563,59.032 29.102,57.771 28.686,56.52 C28.463,55.852 28.254,55.192 28.057,54.535 C27.368,52.249 26.839,50.046 26.465,47.934 C25.101,40.283 25.778,33.876 28.448,29.428" id="Fill-15" fill="#5CAFCD"/><path d="M122.377,63.435 C122.768,66.919 123.044,70.489 123.199,74.129 C124.291,72.257 125.318,70.388 126.266,68.522 C125.023,66.821 123.726,65.123 122.377,63.435" id="Fill-16" fill="#5CAFCD"/><path d="M108.165,57.333 C107.956,56.044 107.734,54.769 107.492,53.507 C107.031,51.105 106.508,48.758 105.925,46.465 C105.851,46.174 105.773,45.885 105.698,45.594 C103.018,43.133 100.3,40.806 97.565,38.622 C95.877,37.273 94.178,35.975 92.479,34.733 C90.422,33.235 88.359,31.813 86.3,30.476 C84.198,29.111 82.098,27.831 80.011,26.643 C75.091,23.84 70.229,21.536 65.521,19.755 C64.293,21.512 63.107,23.446 61.979,25.547 C61.656,26.15 61.335,26.765 61.018,27.394 C60.429,28.575 59.864,29.793 59.318,31.037 C62.038,32.099 64.784,33.333 67.541,34.733 C69.409,35.681 71.277,36.707 73.151,37.801 C73.408,37.951 73.665,38.098 73.924,38.253 C75.956,39.461 77.986,40.75 80.011,42.123 C81.073,42.843 82.134,43.589 83.192,44.351 C86.24,46.553 89.264,48.928 92.239,51.466 C95.295,54.071 98.3,56.844 101.225,59.774 C104.153,62.701 106.928,65.705 109.532,68.761 C109.224,64.861 108.765,61.043 108.165,57.333" id="Fill-17" fill="#5CAFCD"/><path d="M51.857,104.645 C52.063,105.935 52.286,107.21 52.528,108.471 C52.987,110.873 53.512,113.221 54.094,115.512 C54.169,115.805 54.247,116.094 54.324,116.385 C57.002,118.846 59.72,121.172 62.457,123.355 C64.146,124.705 65.842,126.003 67.541,127.244 C69.6,128.743 71.663,130.164 73.719,131.502 C75.822,132.865 77.922,134.146 80.011,135.336 C84.929,138.137 89.791,140.441 94.5,142.224 C95.727,140.467 96.913,138.532 98.041,136.431 C98.364,135.828 98.685,135.213 99,134.584 C99.592,133.403 100.156,132.185 100.702,130.943 C97.982,129.88 95.238,128.646 92.479,127.244 C90.611,126.298 88.743,125.27 86.871,124.177 C86.614,124.027 86.354,123.879 86.096,123.726 C84.064,122.518 82.034,121.227 80.011,119.856 C78.948,119.134 77.888,118.39 76.83,117.626 C73.782,115.426 70.756,113.051 67.783,110.511 C64.727,107.907 61.72,105.134 58.797,102.204 C55.865,99.278 53.093,96.273 50.488,93.218 C50.796,97.117 51.257,100.933 51.857,104.645" id="Fill-18" fill="#5CAFCD"/><path d="M134.229,139.922 L138.944,135.209 C142.966,131.183 145.112,125.671 145.547,119.175 C145.785,115.651 145.512,111.838 144.772,107.814 C144.349,105.543 143.779,103.206 143.061,100.817 C142.536,99.064 141.928,97.284 141.244,95.478 C139.463,90.77 137.159,85.908 134.358,80.989 C133.168,83.08 131.887,85.177 130.523,87.279 C129.184,89.337 127.764,91.4 126.266,93.456 C127.664,96.216 128.899,98.961 129.964,101.68 C130.459,102.946 130.918,104.206 131.336,105.458 C131.559,106.127 131.766,106.786 131.963,107.442 C132.65,109.728 133.181,111.932 133.555,114.044 C134.917,121.693 134.244,128.101 131.57,132.551 C127.124,135.221 120.717,135.897 113.066,134.535 C112.273,136.294 111.44,137.983 110.573,139.594 C109.39,141.791 108.142,143.846 106.835,145.748 C110.858,146.493 114.673,146.763 118.196,146.526 C124.691,146.089 130.204,143.946 134.229,139.922" id="Fill-19" fill="#5CAFCD"/><path d="M43.373,77.808 C42.61,78.866 41.866,79.926 41.145,80.989 C39.771,83.012 38.481,85.044 37.273,87.075 C37.121,87.333 36.972,87.592 36.821,87.849 C36.974,91.488 37.254,95.06 37.643,98.543 C37.884,100.689 38.162,102.806 38.485,104.88 C38.88,107.396 39.335,109.857 39.843,112.259 C40.364,114.71 40.944,117.1 41.579,119.419 C43.079,124.876 44.888,129.945 46.954,134.535 C49.068,134.159 51.27,133.63 53.557,132.943 C54.213,132.745 54.872,132.538 55.542,132.314 C56.791,131.897 58.052,131.436 59.318,130.943 C58.149,128.268 57.078,125.453 56.118,122.513 C55.469,120.525 54.872,118.479 54.324,116.385 C54.247,116.094 54.169,115.805 54.094,115.512 C53.512,113.221 52.987,110.873 52.528,108.471 C52.286,107.21 52.063,105.935 51.857,104.645 C51.257,100.933 50.796,97.117 50.488,93.218 C50.169,89.216 50.006,85.131 50.006,80.989 C50.006,76.848 50.169,72.762 50.488,68.761 C47.948,71.736 45.574,74.76 43.373,77.808" id="Fill-20" fill="#47B178"/><path d="M122.377,98.543 C120.192,101.279 117.867,103.997 115.406,106.675 C117.501,106.127 119.546,105.529 121.533,104.88 C121.858,102.806 122.137,100.689 122.377,98.543" id="Fill-21" fill="#47B178"/><path d="M37.643,63.435 C39.828,60.698 42.153,57.981 44.616,55.303 C42.519,55.852 40.474,56.449 38.485,57.097 C38.162,59.174 37.884,61.289 37.643,63.435" id="Fill-22" fill="#47B178"/><path d="M116.649,84.171 C117.412,83.112 118.152,82.052 118.878,80.989 C120.249,78.965 121.539,76.935 122.747,74.903 C122.9,74.646 123.048,74.387 123.199,74.129 C123.044,70.489 122.768,66.919 122.377,63.435 C122.137,61.289 121.858,59.174 121.533,57.097 C121.14,54.583 120.687,52.122 120.177,49.719 C119.656,47.267 119.078,44.878 118.439,42.559 C116.942,37.102 115.134,32.033 113.066,27.443 C110.952,27.818 108.75,28.348 106.465,29.036 C105.807,29.233 105.148,29.441 104.478,29.664 C103.227,30.082 101.966,30.541 100.702,31.036 C101.871,33.711 102.94,36.524 103.9,39.465 C104.551,41.453 105.148,43.498 105.698,45.594 C105.773,45.885 105.851,46.174 105.925,46.465 C106.508,48.758 107.031,51.105 107.492,53.507 C107.734,54.769 107.957,56.044 108.165,57.333 C108.765,61.043 109.224,64.861 109.532,68.761 C109.849,72.762 110.015,76.848 110.015,80.989 C110.015,85.131 109.849,89.216 109.532,93.218 C112.072,90.243 114.446,87.219 116.649,84.171" id="Fill-23" fill="#47B178"/><g id="Group-27" stroke-width="1" fill="none" transform="translate(41.000000, 0.000000)"><mask id="mask-4" fill="#fff"><use xlink:href="#path-3"/></mask><path d="M65.835,16.229 C63.516,12.859 61.007,9.97 58.35,7.646 C53.449,3.362 48.035,0.979 42.345,0.979 L35.676,0.979 C29.987,0.979 24.572,3.362 19.67,7.646 C17.011,9.97 14.505,12.859 12.185,16.229 C10.876,18.131 9.63,20.187 8.447,22.385 C7.58,23.996 6.747,25.684 5.954,27.444 C3.888,32.033 2.079,37.102 0.579,42.559 C2.898,41.924 5.289,41.343 7.741,40.822 C10.144,40.313 12.604,39.86 15.118,39.465 C16.078,36.524 17.149,33.711 18.318,31.037 C18.864,29.793 19.429,28.575 20.018,27.394 C20.335,26.765 20.656,26.15 20.979,25.547 C22.107,23.446 23.293,21.512 24.521,19.755 C28.97,13.38 33.976,9.327 39.011,8.07 C44.045,9.327 49.052,13.38 53.5,19.755 C55.305,19.07 57.086,18.465 58.839,17.937" id="Fill-24" fill="#47B178" mask="url(#mask-4)"/><path d="M35.676,161 L42.345,161 C48.035,161 53.449,158.616 58.35,154.332 C61.007,152.008 63.516,149.119 65.835,145.748 C67.142,143.846 68.39,141.791 69.573,139.594 C70.44,137.983 71.273,136.294 72.066,134.535 C74.134,129.945 75.942,124.876 77.439,119.419 L70.281,121.155 C67.878,121.665 65.416,122.119 62.9,122.513 C61.94,125.453 60.871,128.268 59.702,130.943 C59.156,132.185 58.592,133.403 58,134.584 C57.685,135.213 57.364,135.828 57.041,136.431 C55.913,138.532 54.727,140.467 53.5,142.224 C49.052,148.599 44.045,152.65 39.011,153.907 C33.976,152.65 28.97,148.599 24.521,142.224 C22.715,142.908 20.936,143.513 19.183,144.04 L12.185,145.748 C14.505,149.119 17.011,152.008 19.67,154.332 C24.572,158.616 29.987,161 35.676,161" id="Fill-26" fill="#47B178" mask="url(#mask-4)"/></g></g></g></g></svg>