<svg xmlns="http://www.w3.org/2000/svg" xmlns:xlink="http://www.w3.org/1999/xlink" width="257" height="257" viewBox="0 0 257 257"><defs><circle id="a" cx="128.5" cy="128.5" r="125"/></defs><g fill="none" fill-rule="evenodd"><circle cx="128" cy="128" r="125" fill="#FFF" transform="translate(.5 .5)"/><mask id="b" fill="#fff"><use xlink:href="#a"/></mask><g fill-rule="nonzero" mask="url(#b)"><path fill="#49BC82" d="M182.476 161.088c.393-2.83.725-5.667.996-8.51-2.995 3.627-6.178 7.236-9.538 10.81 2.96-.696 5.81-1.465 8.542-2.3zm-103.763-60.76c-.405 2.804-.748 5.618-1.03 8.438 3.017-3.683 6.155-7.263 9.41-10.736-2.817.678-5.61 1.445-8.38 2.298zm105.66 22.683c1.562-2.522 3.04-5.095 4.433-7.715-1.748-2.307-3.545-4.575-5.392-6.804.485 4.83.805 9.67.96 14.52zM72.47 145.703c1.647 2.207 3.367 4.412 5.16 6.608-.44-4.693-.733-9.4-.878-14.11-1.504 2.456-2.933 4.958-4.283 7.503zm88.296 36.976c-1.242 3.957-2.612 7.673-4.104 11.112-2.368 5.46-5.027 10.224-7.898 14.218-5.45 7.583-11.66 12.36-18.116 13.613-6.8-1.463-13.11-6.27-18.547-13.784-5.345 2.007-10.567 3.432-15.596 4.225 1.623 2.25 3.34 4.334 5.162 6.22 7.827 8.102 14.66 12.72 28.898 12.72s22.3-5.228 30.38-14.32c1.238-1.402 2.408-2.862 3.505-4.375 3-4.113 5.67-8.812 8.002-14.02 2.59-5.787 4.762-12.196 6.52-19.102-5.75 1.454-11.84 2.62-18.206 3.495zm-.12-138.02C152.51 35.358 144.635 30 130.565 30s-19.075 3.96-26.54 10.977c-2.546 2.394-4.922 5.156-7.133 8.228-2.88 4.003-5.47 8.548-7.76 13.56-2.722 5.957-5.017 12.567-6.87 19.704 5.703-1.49 11.738-2.694 18.045-3.603 1.273-4.127 2.688-7.997 4.235-11.567 2.3-5.312 4.882-9.968 7.67-13.908 5.51-7.784 11.83-12.742 18.437-14.18 6.552 1.217 12.852 6.098 18.36 13.878 5.15-1.95 10.185-3.34 15.054-4.128-1.072-1.485-2.21-2.92-3.413-4.303v-.002zm.33 34.13c-2.718-.376-5.485-.7-8.297-.97 3.623 2.975 7.15 6.068 10.57 9.275-.67-2.79-1.43-5.56-2.273-8.304zm-60.76 103.765c2.833.41 5.717.764 8.652 1.056-3.762-3.107-7.423-6.334-10.975-9.677.68 2.898 1.455 5.773 2.324 8.62zm112.768-12.598c-.113-1.814-.31-3.622-.592-5.417-.774-5.036-2.198-10.253-4.226-15.593-2.283-6.008-5.324-12.167-9.027-18.385-3.03 5.097-6.51 10.233-10.39 15.358 1.977 3.775 3.677 7.466 5.08 11.042 2.18 5.54 3.66 10.797 4.44 15.65 1.465 9.14.44 16.845-3.215 22.263-5.788 3.737-13.556 4.82-22.603 3.412-2.332 5.208-5.002 9.907-8.003 14.02 2.634.41 5.223.655 7.748.7 11.264.194 19.363-1.373 29.43-11.44 10.068-10.068 12.07-19.467 11.356-31.61zM91.137 48.53c-12.33-.822-21.687.956-31.636 10.906-9.948 9.95-10.688 16.286-11.003 26.527-.11 3.542.17 7.227.798 11.015.805 4.864 2.196 9.904 4.127 15.06 2.265 6.048 5.272 12.253 8.945 18.516 2.985-5.08 6.406-10.196 10.226-15.294-1.957-3.715-3.654-7.355-5.056-10.882-2.14-5.378-3.614-10.49-4.444-15.25-1.65-9.475-.698-17.513 2.98-23.237 5.546-3.807 13.547-4.795 23.058-3.124 2.29-5.013 4.882-9.558 7.763-13.56-1.907-.317-3.827-.543-5.756-.677zm92.28 59.96c-.277-2.726-.603-5.412-.982-8.05-.914-6.375-2.13-12.473-3.636-18.23-1.806-6.908-4.026-13.323-6.65-19.122-4.748.802-9.873 2.265-15.27 4.39 1.493 3.5 2.86 7.286 4.098 11.31.843 2.744 1.602 5.514 2.274 8.305.708 2.937 1.345 5.982 1.91 9.126 1.075 5.99 1.875 12.342 2.363 18.993.36 4.915.56 9.983.56 15.203 0 5.264-.202 10.37-.57 15.32 4.415-5.095 8.397-10.178 11.905-15.19 1.724-2.463 3.376-4.976 4.954-7.535-.154-4.848-.474-9.69-.958-14.52zm-83.2 74.063c-.87-2.847-1.645-5.722-2.326-8.62-.667-2.838-1.276-5.77-1.81-8.804-1.073-6.1-1.857-12.594-2.333-19.41-.357-5.092-.535-10.197-.536-15.304 0-5.255.202-10.348.564-15.28-4.426 5.112-8.406 10.23-11.93 15.29-1.773 2.54-3.47 5.133-5.092 7.773.15 4.806.445 9.516.88 14.11.274 2.91.6 5.78.988 8.59.87 6.297 2.027 12.324 3.464 18.017 1.768 7 3.965 13.492 6.585 19.35 4.862-.81 10.105-2.3 15.627-4.49-1.492-3.47-2.856-7.222-4.08-11.225zm15.2-110.17c-2.348 1.777-4.657 3.605-6.925 5.483 4.93-.495 9.876-.82 14.828-.97-2.584-1.59-5.22-3.095-7.903-4.512zM65.89 195.208c-3.806-5.543-4.795-13.545-3.123-23.057-5.013-2.288-9.56-4.88-13.56-7.76-.32 1.947-.553 3.87-.678 5.755-.82 12.33.957 21.688 10.906 31.636 9.95 9.95 16.286 10.69 26.528 11.005 3.394.105 6.918-.15 10.54-.722-2.933-4.06-5.548-8.682-7.835-13.796-9.276 1.54-17.147.56-22.78-3.06zm49.383-6.525c-3.75 1.977-7.42 3.683-10.976 5.094 2.317 5.387 4.938 10.1 7.804 14.06 5.996-2.25 12.145-5.23 18.35-8.862-5.038-3.01-10.112-6.454-15.177-10.292zm30.553.038c2.197-1.643 4.36-3.333 6.484-5.068-4.496.424-9.104.714-13.805.866 2.396 1.477 4.837 2.878 7.32 4.203zm-41.53 5.057c-5.52 2.19-10.765 3.68-15.627 4.49 2.286 5.114 4.9 9.736 7.834 13.796 5.03-.795 10.25-2.22 15.597-4.225-2.865-3.962-5.487-8.674-7.803-14.06zm97.267-134.124c-10.066-10.066-19.465-12.07-31.607-11.356-1.975.123-3.94.345-5.893.666-4.87.788-9.906 2.176-15.055 4.128-6.063 2.3-12.28 5.37-18.554 9.116 5.14 3.006 10.315 6.458 15.474 10.318 3.743-1.96 7.406-3.646 10.952-5.044 5.396-2.127 10.52-3.59 15.27-4.39 9.34-1.577 17.215-.58 22.722 3.137 3.738 5.788 4.82 13.556 3.412 22.603 5.208 2.332 9.907 5 14.02 8.003.413-2.635.656-5.225.7-7.75.195-11.264-1.372-19.362-11.44-29.43zm-7.774 44.966c-1.384 3.463-3.05 7.03-4.984 10.676-1.393 2.62-2.87 5.193-4.432 7.716-1.58 2.56-3.23 5.072-4.954 7.535-3.51 5.012-7.49 10.095-11.905 15.19-3.416 3.943-6.972 7.763-10.662 11.452-3.583 3.582-7.296 7.033-11.13 10.345 6.785-.474 13.253-1.254 19.33-2.32 2.978-.523 5.94-1.13 8.88-1.825 3.295-3.5 6.476-7.106 9.54-10.81 1.806-2.184 3.566-4.404 5.278-6.662 3.88-5.124 7.36-10.26 10.39-15.357 3.627-6.1 6.61-12.143 8.868-18.043-3.993-2.87-8.757-5.53-14.22-7.898zm-97.647-8.487c-3.034.545-6.052 1.177-9.05 1.897-3.255 3.473-6.393 7.053-9.41 10.736-1.743 2.128-3.44 4.294-5.09 6.494-3.82 5.098-7.24 10.214-10.227 15.293-3.68 6.26-6.7 12.468-8.973 18.517 3.94 2.788 8.595 5.37 13.908 7.672 1.435-3.576 3.168-7.27 5.17-11.04 1.35-2.544 2.778-5.047 4.282-7.503 1.622-2.64 3.32-5.233 5.092-7.773 3.524-5.06 7.504-10.18 11.93-15.29 6.615-7.64 13.78-14.787 21.44-21.38-6.68.49-13.057 1.293-19.07 2.376zm120.536 4.202c-1.402-1.236-2.862-2.405-4.376-3.502-4.113-3.003-8.812-5.672-14.02-8.004-5.893-2.64-12.432-4.845-19.485-6.62 1.504 5.757 2.72 11.855 3.635 18.23 4.047 1.26 7.846 2.657 11.354 4.18 5.46 2.367 10.225 5.026 14.218 7.896 7.582 5.45 12.36 11.662 13.612 18.117-1.442 6.702-6.126 12.93-13.454 18.312 2.028 5.34 3.452 10.557 4.226 15.593 2.122-1.553 4.095-3.19 5.887-4.923 8.102-7.826 12.72-14.66 12.72-28.898s-5.23-22.3-14.322-30.382zM78.62 160.9c-4.033-1.255-7.82-2.644-11.32-4.158-5.312-2.3-9.967-4.884-13.907-7.672-7.784-5.51-12.743-11.83-14.18-18.437 1.233-6.645 6.233-13.03 14.208-18.594-1.93-5.158-3.32-10.198-4.126-15.062-1.603 1.144-3.15 2.364-4.635 3.656-9.302 8.14-14.66 16.013-14.66 30.083 0 14.07 3.958 19.073 10.977 26.54 2.394 2.545 5.156 4.922 8.228 7.132 4.003 2.88 8.548 5.47 13.56 7.76 5.85 2.673 12.33 4.934 19.318 6.767-1.437-5.693-2.594-11.72-3.464-18.018zm52.093-79.156c-2.42-1.684-4.884-3.3-7.393-4.848-5.056.157-10.007.483-14.828.97-2.775.28-5.504.614-8.186 1-6.306.91-12.342 2.115-18.044 3.603-6.926 1.806-13.358 4.03-19.17 6.66.83 4.756 2.305 9.87 4.444 15.248 3.462-1.474 7.202-2.826 11.177-4.05 2.688-.828 5.478-1.6 8.38-2.298 2.915-.702 5.934-1.336 9.05-1.897 6.014-1.083 12.392-1.887 19.07-2.376 4.914-.36 9.983-.56 15.203-.56 5.42 0 10.673.216 15.76.603-5.17-4.478-10.346-8.5-15.462-12.056zm63.118 75.216c-3.506 1.51-7.3 2.89-11.354 4.128-2.82.86-5.67 1.627-8.542 2.3-2.862.675-5.818 1.288-8.88 1.825-6.078 1.067-12.545 1.847-19.332 2.322-4.938.345-10.04.535-15.306.535-5.098 0-10.046-.188-14.84-.528 5.036 4.362 10.062 8.3 15.018 11.776 2.584 1.812 5.222 3.546 7.91 5.2 4.702-.153 9.31-.443 13.806-.867 2.826-.264 5.645-.588 8.456-.972 6.366-.875 12.457-2.04 18.206-3.495 6.982-1.766 13.455-3.958 19.297-6.572-.78-4.853-2.26-10.11-4.44-15.65zm-48.004 31.76c-2.484-1.325-4.925-2.726-7.32-4.202-2.69-1.653-5.328-3.387-7.912-5.2-4.956-3.476-9.982-7.414-15.02-11.777-3.953-3.424-7.783-6.99-11.48-10.687-3.584-3.584-7.035-7.297-10.348-11.132.477 6.816 1.26 13.31 2.334 19.41.534 3.034 1.143 5.966 1.812 8.803 3.553 3.344 7.214 6.57 10.976 9.676 2.1 1.733 4.236 3.425 6.405 5.072 5.064 3.84 10.14 7.283 15.178 10.293 6.194 3.7 12.328 6.74 18.314 9.033 2.87-3.994 5.53-8.758 7.898-14.218-3.514-1.404-7.136-3.1-10.836-5.07zm19.335-92.5c-.546-3.062-1.183-6.105-1.91-9.127-3.42-3.207-6.947-6.3-10.57-9.275-2.212-1.814-4.463-3.58-6.752-5.295-5.16-3.86-10.335-7.312-15.474-10.318-6.17-3.607-12.282-6.572-18.243-8.813-2.787 3.94-5.37 8.596-7.67 13.908 3.524 1.414 7.162 3.12 10.877 5.084 2.6 1.374 5.236 2.87 7.903 4.51 2.444 1.505 4.91 3.126 7.394 4.85 5.116 3.555 10.293 7.578 15.46 12.056 7.63 6.61 14.764 13.766 21.35 21.414-.49-6.652-1.287-13.003-2.364-18.996z"/><path fill="#49BC82" d="M183.002 161.676c.394-2.857.726-5.722.998-8.593-3 3.662-6.19 7.307-9.557 10.917 2.967-.704 5.82-1.48 8.56-2.324M79.03 100.32c-.404 2.832-.748 5.673-1.03 8.52 3.022-3.717 6.167-7.333 9.43-10.84-2.824.685-5.624 1.46-8.4 2.32"/><path fill="#57B6DF" d="M183.58 123.58c1.558-2.534 3.032-5.117 4.42-7.748-1.743-2.316-3.535-4.594-5.376-6.832.483 4.847.802 9.71.957 14.58M72 146.365c1.643 2.216 3.358 4.43 5.146 6.634-.44-4.713-.73-9.438-.875-14.17-1.5 2.468-2.924 4.98-4.27 7.536"/><path fill="#49BC82" d="M160.74 182.68c-1.246 3.955-2.62 7.67-4.117 11.11-2.374 5.46-5.042 10.224-7.92 14.218-5.467 7.583-11.697 12.36-18.172 13.613-6.818-1.463-13.15-6.27-18.6-13.784-5.363 2.007-10.6 3.432-15.645 4.225 1.63 2.25 3.35 4.334 5.177 6.22 7.85 8.102 14.705 12.72 28.985 12.72s22.367-5.228 30.472-14.32c1.24-1.402 2.413-2.862 3.514-4.375 3.01-4.113 5.688-8.812 8.026-14.02 2.597-5.787 4.777-12.196 6.54-19.102-5.766 1.454-11.874 2.62-18.26 3.495m-.12-138.02C152.458 35.358 144.56 30 130.448 30c-14.11 0-19.132 3.96-26.618 10.977-2.556 2.394-4.94 5.156-7.156 8.228-2.89 4.003-5.488 8.548-7.785 13.56-2.73 5.957-5.033 12.567-6.89 19.704 5.72-1.49 11.772-2.694 18.098-3.603 1.277-4.127 2.696-7.997 4.247-11.567 2.307-5.312 4.897-9.968 7.694-13.908 5.523-7.784 11.863-12.742 18.49-14.18 6.572 1.217 12.89 6.098 18.415 13.878 5.165-1.95 10.216-3.34 15.1-4.128-1.077-1.485-2.22-2.92-3.425-4.303"/><path fill="#276392" d="M161.704 78.972c-2.746-.377-5.54-.702-8.38-.972 3.66 2.98 7.22 6.08 10.676 9.293-.68-2.797-1.445-5.572-2.296-8.32m-61.358 103.97c2.86.41 5.774.765 8.738 1.057-3.8-3.112-7.496-6.345-11.084-9.695.687 2.903 1.47 5.784 2.347 8.637"/><path fill="#57B6DF" d="M211.87 169.11c-.112-1.806-.31-3.607-.59-5.395-.77-5.016-2.19-10.212-4.21-15.53-2.273-5.983-5.303-12.117-8.992-18.31-3.018 5.076-6.483 10.192-10.346 15.295 1.968 3.76 3.66 7.437 5.06 10.998 2.17 5.518 3.645 10.753 4.42 15.587 1.46 9.103.44 16.776-3.2 22.172-5.767 3.722-13.505 4.8-22.516 3.398-2.323 5.187-4.983 9.867-7.972 13.963 2.625.41 5.203.653 7.72.697 11.22.194 19.286-1.367 29.314-11.393 10.03-10.027 12.024-19.388 11.312-31.48M90.497 48.175c-12.283-.817-21.602.954-31.513 10.863-9.91 9.908-10.647 16.22-10.96 26.42-.11 3.526.17 7.196.793 10.97.802 4.843 2.188 9.863 4.11 14.998 2.258 6.024 5.253 12.203 8.91 18.44 2.976-5.06 6.383-10.154 10.188-15.23-1.95-3.7-3.64-7.327-5.037-10.84-2.13-5.355-3.6-10.448-4.426-15.186-1.645-9.438-.695-17.443 2.97-23.144 5.522-3.793 13.493-4.776 22.967-3.113 2.28-4.992 4.86-9.518 7.73-13.506-1.9-.316-3.812-.54-5.733-.674"/><path fill="#49BC82" d="M184.037 108.343c-.276-2.723-.603-5.406-.983-8.04-.917-6.367-2.14-12.456-3.65-18.206-1.81-6.9-4.038-13.306-6.67-19.097-4.766.8-9.91 2.262-15.325 4.385 1.497 3.495 2.87 7.276 4.11 11.295.847 2.74 1.608 5.506 2.283 8.293.71 2.934 1.35 5.975 1.916 9.114 1.08 5.984 1.88 12.327 2.372 18.97.36 4.908.56 9.97.56 15.183 0 5.257-.202 10.357-.57 15.3 4.43-5.09 8.426-10.165 11.947-15.17 1.728-2.46 3.386-4.97 4.97-7.526-.155-4.843-.476-9.68-.962-14.5m-83.492 73.963c-.872-2.843-1.65-5.714-2.333-8.608-.67-2.835-1.282-5.762-1.817-8.793-1.077-6.092-1.864-12.576-2.34-19.382-.36-5.088-.54-10.186-.54-15.285 0-5.248.202-10.335.566-15.26-4.442 5.104-8.436 10.216-11.973 15.27-1.78 2.537-3.483 5.126-5.11 7.763.15 4.8.446 9.503.88 14.092.277 2.907.605 5.77.994 8.577.873 6.29 2.034 12.31 3.476 17.995 1.774 6.992 3.98 13.474 6.608 19.323 4.88-.807 10.142-2.296 15.683-4.484-1.496-3.466-2.864-7.21-4.094-11.21"/><path fill="#FABB66" d="M115.092 72c-2.35 1.784-4.66 3.62-6.928 5.506 4.932-.497 9.88-.823 14.834-.975-2.585-1.595-5.222-3.106-7.906-4.53M65.545 195.33c-3.808-5.566-4.797-13.6-3.124-23.15-5.015-2.3-9.562-4.902-13.566-7.795-.318 1.956-.552 3.886-.678 5.78-.82 12.38.96 21.776 10.912 31.765 9.953 9.99 16.293 10.732 26.538 11.05 3.396.104 6.92-.152 10.545-.726-2.933-4.077-5.55-8.718-7.837-13.853-9.28 1.546-17.153.562-22.788-3.072m49.402-6.552c-3.75 1.985-7.423 3.698-10.98 5.115 2.318 5.41 4.94 10.142 7.807 14.12 5.998-2.26 12.15-5.252 18.357-8.9-5.04-3.022-10.115-6.48-15.183-10.334m30.566.038c2.198-1.65 4.36-3.347 6.487-5.09-4.5.426-9.108.717-13.81.87 2.396 1.483 4.838 2.89 7.323 4.22"/><path fill="#FABB66" d="M104.023 193.703c-5.535 2.19-10.79 3.684-15.664 4.492 2.29 5.117 4.912 9.742 7.852 13.805 5.04-.795 10.276-2.22 15.634-4.228-2.873-3.964-5.5-8.68-7.823-14.07m97.495-134.207c-10.09-10.074-19.51-12.08-31.683-11.364-1.978.123-3.95.346-5.906.667-4.882.788-9.93 2.178-15.09 4.13-6.078 2.3-12.31 5.374-18.598 9.122 5.15 3.007 10.34 6.46 15.51 10.323 3.752-1.96 7.423-3.65 10.978-5.047 5.408-2.128 10.545-3.59 15.306-4.393 9.362-1.578 17.255-.58 22.775 3.14 3.748 5.79 4.833 13.563 3.42 22.616 5.22 2.333 9.93 5.004 14.055 8.008.413-2.638.656-5.23.7-7.756.196-11.27-1.375-19.374-11.467-29.447m-7.793 44.994c-1.386 3.464-3.057 7.034-4.995 10.682-1.395 2.622-2.877 5.197-4.442 7.72-1.583 2.56-3.238 5.076-4.966 7.54-3.516 5.016-7.508 10.102-11.932 15.2-3.424 3.946-6.99 7.768-10.687 11.46-3.592 3.585-7.314 7.038-11.158 10.352 6.803-.474 13.285-1.255 19.378-2.322 2.984-.523 5.952-1.132 8.9-1.825 3.302-3.504 6.49-7.11 9.56-10.82 1.812-2.183 3.576-4.405 5.293-6.663 3.888-5.128 7.374-10.268 10.41-15.368 3.638-6.104 6.627-12.15 8.89-18.055-4-2.87-8.776-5.532-14.25-7.9M95.85 95.997c-3.04.545-6.066 1.177-9.07 1.898-3.263 3.475-6.41 7.058-9.433 10.742-1.747 2.13-3.448 4.297-5.103 6.5-3.828 5.1-7.257 10.22-10.25 15.3-3.69 6.267-6.715 12.477-8.994 18.53 3.95 2.79 8.615 5.374 13.94 7.676 1.438-3.577 3.175-7.272 5.18-11.046 1.354-2.546 2.786-5.05 4.294-7.508 1.626-2.64 3.328-5.235 5.104-7.777 3.532-5.064 7.522-10.185 11.958-15.3 6.63-7.645 13.813-14.795 21.49-21.393-6.694.49-13.088 1.295-19.116 2.378"/><path fill="#276392" d="M216.68 100.522c-1.402-1.242-2.862-2.415-4.376-3.515-4.113-3.013-8.812-5.692-14.02-8.032-5.893-2.648-12.432-4.862-19.485-6.642 1.504 5.777 2.72 11.896 3.635 18.293 4.047 1.266 7.846 2.667 11.354 4.194 5.46 2.376 10.225 5.045 14.218 7.925 7.582 5.47 12.36 11.703 13.612 18.18-1.442 6.726-6.126 12.977-13.454 18.377 2.028 5.36 3.452 10.594 4.226 15.648 2.122-1.558 4.095-3.202 5.887-4.94 8.102-7.854 12.72-14.712 12.72-29s-5.23-22.38-14.322-30.488M78.62 161.298c-4.033-1.258-7.82-2.652-11.318-4.172-5.314-2.31-9.97-4.9-13.91-7.7-7.783-5.527-12.742-11.87-14.18-18.5 1.234-6.668 6.234-13.077 14.21-18.66-1.932-5.174-3.323-10.233-4.128-15.113-1.603 1.147-3.15 2.372-4.635 3.67C35.357 108.988 30 116.89 30 131.01c0 14.12 3.958 19.14 10.977 26.633 2.394 2.555 5.156 4.94 8.228 7.157 4.003 2.89 8.548 5.492 13.56 7.79 5.85 2.68 12.33 4.95 19.318 6.79-1.437-5.713-2.594-11.762-3.464-18.082m52.094-79.433c-2.42-1.69-4.885-3.312-7.394-4.865-5.056.157-10.007.485-14.828.973-2.775.282-5.504.616-8.186 1.004C94 79.89 87.964 81.1 82.262 82.592c-6.926 1.814-13.358 4.046-19.17 6.684.83 4.774 2.305 9.906 4.444 15.303 3.462-1.48 7.202-2.838 11.177-4.066 2.688-.83 5.478-1.604 8.38-2.306 2.915-.704 5.934-1.34 9.05-1.903 6.014-1.087 12.392-1.894 19.07-2.385 4.914-.362 9.983-.56 15.203-.56 5.42 0 10.673.214 15.76.604-5.17-4.494-10.346-8.532-15.462-12.1m63.117 75.48c-3.506 1.518-7.3 2.902-11.354 4.144-2.82.862-5.67 1.633-8.542 2.31-2.862.676-5.818 1.29-8.88 1.83-6.078 1.07-12.545 1.853-19.332 2.33-4.938.346-10.04.536-15.306.536-5.098 0-10.046-.188-14.84-.53 5.036 4.378 10.062 8.33 15.018 11.818 2.584 1.82 5.222 3.56 7.91 5.218 4.702-.153 9.31-.445 13.806-.87 2.826-.265 5.645-.59 8.456-.976 6.366-.878 12.457-2.048 18.206-3.507 6.982-1.772 13.455-3.973 19.297-6.596-.78-4.87-2.26-10.144-4.44-15.705"/><path fill="#57B6DF" d="M145.236 187.79c-2.49-1.32-4.94-2.716-7.343-4.186-2.696-1.647-5.342-3.374-7.934-5.18-4.972-3.462-10.013-7.384-15.065-11.73-3.966-3.41-7.808-6.96-11.518-10.645-3.593-3.57-7.055-7.27-10.377-11.088.478 6.788 1.264 13.255 2.34 19.33.536 3.024 1.147 5.943 1.818 8.77 3.564 3.33 7.236 6.543 11.01 9.636 2.106 1.728 4.248 3.413 6.423 5.053 5.08 3.825 10.17 7.255 15.225 10.253 6.212 3.686 12.365 6.714 18.37 8.997 2.878-3.977 5.546-8.722 7.92-14.16-3.524-1.4-7.157-3.09-10.87-5.05m19.394-92.134c-.55-3.048-1.188-6.08-1.916-9.09-3.432-3.193-6.968-6.274-10.604-9.237-2.218-1.808-4.475-3.567-6.77-5.275-5.175-3.845-10.367-7.283-15.522-10.277-6.187-3.593-12.32-6.546-18.297-8.778-2.797 3.924-5.387 8.56-7.694 13.853 3.534 1.407 7.184 3.106 10.91 5.063 2.608 1.37 5.252 2.858 7.927 4.494 2.45 1.498 4.926 3.112 7.416 4.83 5.13 3.54 10.323 7.547 15.507 12.007 7.65 6.583 14.808 13.71 21.413 21.33-.49-6.627-1.29-12.953-2.37-18.922"/></g></g></svg>