<svg height="257" viewBox="0 0 257 257" width="257" xmlns="http://www.w3.org/2000/svg" xmlns:xlink="http://www.w3.org/1999/xlink"><mask id="a" fill="#fff"><path d="m.579.979h76.86v159.961h-76.86z" fill="none"/></mask><g fill="none" fill-rule="evenodd"><circle cx="128.5" cy="128.5" fill="#333" r="125.5"/><g transform="translate(48 48)"><path d="m160.02 84.324v-6.669c0-5.691-2.382-11.105-6.667-16.006-2.325-2.658-5.213-5.166-8.581-7.485-1.904-1.307-3.96-2.555-6.157-3.739-1.611-.866-3.298-1.698-5.06-2.491-4.588-2.069-9.657-3.877-15.116-5.375.639 2.319 1.217 4.708 1.738 7.16.51 2.403.963 4.864 1.356 7.378 2.941.962 5.757 2.031 8.431 3.2 1.243.546 2.46 1.111 3.64 1.701.631.315 1.245.635 1.849.96 2.1 1.129 4.035 2.314 5.791 3.542 6.376 4.447 10.43 9.455 11.686 14.489-1.256 5.034-5.31 10.04-11.686 14.489.684 1.806 1.292 3.586 1.817 5.339.718 2.389 1.288 4.726 1.711 6.997 3.368-2.319 6.256-4.827 8.581-7.485 4.285-4.902 6.667-10.315 6.667-16.005" fill="#2f577e"/><path d="m62.457 123.355c-2.737-2.183-5.455-4.509-8.133-6.97.548 2.094 1.145 4.14 1.794 6.128 2.078.324 4.193.602 6.339.842" fill="#2f577e"/><path d="m76.83 117.626c1.058.764 2.118 1.508 3.181 2.23 2.023 1.371 4.053 2.662 6.085 3.87.258.153.518.301.775.451 3.638-.154 7.207-.43 10.694-.822 2.146-.24 4.261-.518 6.335-.842 2.516-.394 4.978-.848 7.381-1.358 2.452-.52 4.839-1.101 7.158-1.736 5.459-1.499 10.528-3.307 15.116-5.375-.374-2.112-.905-4.316-1.592-6.602-.197-.656-.404-1.315-.627-1.984-.418-1.252-.877-2.512-1.372-3.778-2.674 1.17-5.49 2.24-8.431 3.2-1.987.649-4.032 1.247-6.127 1.795-.291.077-.582.156-.873.229-2.293.582-4.638 1.107-7.041 1.567-1.262.243-2.538.465-3.825.674-3.713.599-7.526 1.059-11.428 1.366-4.001.32-8.088.483-12.228.483-4.142 0-8.227-.163-12.228-.483 2.973 2.54 5.999 4.915 9.047 7.115" fill="#2f577e"/><path d="m28.057 54.535c.197.657.406 1.317.629 1.985.416 1.251.877 2.512 1.371 3.777 2.675-1.169 5.489-2.238 8.428-3.2 1.989-.648 4.034-1.245 6.131-1.794.289-.078.58-.155.871-.229 2.292-.582 4.64-1.107 7.041-1.567 1.262-.242 2.538-.466 3.825-.672 3.713-.602 7.528-1.06 11.43-1.369 4.001-.318 8.086-.481 12.228-.481 4.14 0 8.227.163 12.228.481-2.975-2.538-5.999-4.913-9.047-7.115-1.058-.762-2.119-1.508-3.181-2.228-2.025-1.373-4.055-2.662-6.087-3.87-.259-.155-.516-.302-.773-.452-3.641.153-7.211.431-10.694.821-2.146.24-4.261.519-6.339.843-2.514.395-4.974.848-7.377 1.357-2.452.521-4.843 1.102-7.162 1.737-5.455 1.498-10.524 3.306-15.114 5.375.374 2.112.903 4.315 1.592 6.601" fill="#2f577e"/><path d="m97.565 38.622c2.735 2.184 5.453 4.511 8.133 6.972-.55-2.096-1.147-4.141-1.798-6.129-2.074-.324-4.189-.603-6.335-.843" fill="#2f577e"/><path d="m7.092 80.989c1.256-5.034 5.309-10.042 11.684-14.489-.686-1.806-1.29-3.586-1.815-5.34-.722-2.389-1.29-4.726-1.711-6.996-3.37 2.319-6.258 4.827-8.583 7.485-4.284 4.901-6.667 10.315-6.667 16.006v6.669c0 5.69 2.383 11.103 6.667 16.005 2.325 2.658 5.213 5.166 8.583 7.485 1.902 1.307 3.959 2.555 6.157 3.737 1.609.869 3.298 1.699 5.058 2.493 4.59 2.068 9.659 3.876 15.114 5.375-.635-2.319-1.215-4.709-1.736-7.16-.508-2.402-.963-4.863-1.358-7.379-2.939-.96-5.753-2.03-8.428-3.2-1.242-.545-2.46-1.109-3.641-1.7-.631-.316-1.243-.635-1.847-.959-2.102-1.131-4.036-2.316-5.793-3.543-6.375-4.449-10.428-9.455-11.684-14.489" fill="#2f577e"/><g fill="#f4b563"><path d="m97.565 123.355c-3.487.392-7.056.668-10.694.822 1.872 1.093 3.74 2.121 5.608 3.067 1.699-1.241 3.398-2.539 5.086-3.889"/><path d="m138.944 26.77-4.715-4.715c-4.025-4.024-9.538-6.167-16.033-6.603-3.523-.237-7.338.034-11.361.777-2.27.421-4.609.99-6.996 1.708-1.753.528-3.534 1.133-5.339 1.818-4.709 1.781-9.571 4.085-14.489 6.888 2.087 1.188 4.187 2.468 6.289 3.833 2.059 1.337 4.122 2.759 6.179 4.257 2.759-1.4 5.503-2.634 8.223-3.697 1.264-.495 2.525-.954 3.776-1.372.67-.223 1.329-.431 1.987-.628 2.285-.688 4.487-1.218 6.601-1.593 7.651-1.362 14.058-.686 18.504 1.985"/><path d="m131.57 29.428c2.674 4.448 3.347 10.854 1.985 18.506 1.762.793 3.449 1.625 5.06 2.491 2.197 1.184 4.253 2.432 6.157 3.739.74-4.023 1.013-7.836.775-11.361-.435-6.495-2.581-12.007-6.603-16.033-.794-.792-1.647-1.51-2.554-2.161"/><path d="m103.667 109.145c1.287-.209 2.563-.431 3.825-.674 2.403-.46 4.748-.985 7.041-1.567.291-.073.582-.152.873-.229 2.461-2.678 4.786-5.396 6.971-8.132 1.349-1.688 2.646-3.386 3.889-5.087 1.498-2.056 2.918-4.119 4.257-6.177 1.364-2.102 2.645-4.199 3.835-6.29 2.801-4.92 5.105-9.781 6.886-14.489-1.756-1.228-3.691-2.413-5.791-3.542-.604-.325-1.218-.645-1.849-.96-1.18-.59-2.397-1.155-3.64-1.701-1.065 2.72-2.3 5.466-3.698 8.225-.948 1.866-1.975 3.735-3.067 5.607-.151.258-.299.517-.452.774-1.208 2.032-2.498 4.062-3.869 6.086-.726 1.063-1.466 2.123-2.229 3.182-2.203 3.048-4.577 6.072-7.117 9.047-2.604 3.055-5.379 6.06-8.307 8.988-2.925 2.928-5.93 5.701-8.986 8.305 3.902-.307 7.715-.767 11.428-1.366"/><path d="m62.457 38.622c3.483-.39 7.053-.668 10.694-.821-1.874-1.094-3.742-2.12-5.61-3.068-1.699 1.242-3.395 2.54-5.084 3.889"/><path d="m28.448 132.551c-2.67-4.45-3.347-10.858-1.983-18.507-1.76-.794-3.449-1.624-5.058-2.493-2.198-1.182-4.255-2.43-6.157-3.737-.744 4.024-1.013 7.837-.777 11.361.437 6.496 2.579 12.008 6.604 16.034l4.716 4.713c4.023 4.024 9.536 6.167 16.031 6.604 3.525.237 7.338-.033 11.361-.778 2.271-.42 4.609-.989 6.998-1.708 1.753-.527 3.532-1.132 5.338-1.816 4.708-1.783 9.57-4.087 14.49-6.888-2.089-1.19-4.189-2.471-6.292-3.834-2.056-1.338-4.119-2.759-6.178-4.258-2.757 1.402-5.503 2.636-8.223 3.699-1.266.493-2.527.954-3.776 1.371-.67.224-1.329.431-1.985.629-2.287.687-4.489 1.216-6.603 1.592-7.651 1.362-14.056.686-18.506-1.984"/><path d="m24.569 99.021c.604.324 1.216.643 1.847.959 1.181.591 2.399 1.155 3.641 1.7 1.062-2.719 2.297-5.464 3.699-8.224.946-1.866 1.973-3.735 3.065-5.607.151-.257.3-.516.452-.774 1.208-2.031 2.498-4.063 3.872-6.086.721-1.063 1.465-2.123 2.228-3.181 2.201-3.048 4.575-6.072 7.115-9.047 2.605-3.056 5.377-6.06 8.309-8.987 2.923-2.93 5.93-5.703 8.986-8.308-3.902.309-7.717.767-11.43 1.369-1.287.206-2.563.43-3.825.672-2.401.46-4.749.985-7.041 1.567-.291.074-.582.151-.871.229-2.463 2.678-4.788 5.395-6.973 8.132-1.349 1.688-2.646 3.386-3.889 5.087-1.498 2.056-2.918 4.118-4.258 6.176-1.363 2.104-2.644 4.2-3.832 6.291-2.803 4.919-5.107 9.781-6.888 14.489 1.757 1.227 3.691 2.412 5.793 3.543"/></g><path d="m37.643 98.543c-.389-3.483-.669-7.055-.822-10.694-1.092 1.872-2.119 3.741-3.065 5.607 1.241 1.701 2.538 3.399 3.887 5.087" fill="#5cafcd"/><path d="m28.448 29.428c4.45-2.671 10.857-3.347 18.506-1.984.793-1.76 1.626-3.448 2.493-5.059 1.183-2.198 2.429-4.254 3.738-6.156-4.023-.743-7.836-1.014-11.361-.777-6.495.436-12.008 2.579-16.031 6.603-.794.795-1.511 1.649-2.163 2.554.652-.905 1.369-1.759 2.163-2.554l-4.716 4.715c-4.025 4.026-6.167 9.538-6.604 16.033-.236 3.525.033 7.338.777 11.361.421 2.27.989 4.607 1.711 6.996.525 1.754 1.129 3.534 1.815 5.34 1.781 4.708 4.085 9.569 6.888 14.489 1.188-2.091 2.469-4.187 3.832-6.291 1.34-2.058 2.76-4.12 4.258-6.176-1.4-2.759-2.635-5.505-3.697-8.225-.494-1.265-.955-2.526-1.371-3.777-.223-.668-.432-1.328-.629-1.985-.689-2.286-1.218-4.489-1.592-6.601-1.364-7.651-.687-14.058 1.983-18.506" fill="#5cafcd"/><path d="m122.377 63.435c.391 3.484.667 7.054.822 10.694 1.092-1.872 2.119-3.741 3.067-5.607-1.243-1.701-2.54-3.399-3.889-5.087" fill="#5cafcd"/><path d="m108.165 57.333c-.209-1.289-.431-2.564-.673-3.826-.461-2.402-.984-4.749-1.567-7.042-.074-.291-.152-.58-.227-.871-2.68-2.461-5.398-4.788-8.133-6.972-1.688-1.349-3.387-2.647-5.086-3.889-2.057-1.498-4.12-2.92-6.179-4.257-2.102-1.365-4.202-2.645-6.289-3.833-4.92-2.803-9.782-5.107-14.49-6.888-1.228 1.757-2.414 3.691-3.542 5.792-.323.603-.644 1.218-.961 1.847-.589 1.181-1.154 2.399-1.7 3.643 2.72 1.062 5.466 2.296 8.223 3.696 1.868.948 3.736 1.974 5.61 3.068.257.15.514.297.773.452 2.032 1.208 4.062 2.497 6.087 3.87 1.062.72 2.123 1.466 3.181 2.228 3.048 2.202 6.072 4.577 9.047 7.115 3.056 2.605 6.061 5.378 8.986 8.308 2.928 2.927 5.703 5.931 8.307 8.987-.308-3.9-.767-7.718-1.367-11.428" fill="#5cafcd"/><path d="m51.857 104.645c.206 1.29.429 2.565.671 3.826.459 2.402.984 4.75 1.566 7.041.075.293.153.582.23.873 2.678 2.461 5.396 4.787 8.133 6.97 1.689 1.35 3.385 2.648 5.084 3.889 2.059 1.499 4.122 2.92 6.178 4.258 2.103 1.363 4.203 2.644 6.292 3.834 4.918 2.801 9.78 5.105 14.489 6.888 1.227-1.757 2.413-3.692 3.541-5.793.323-.603.644-1.218.959-1.847.592-1.181 1.156-2.399 1.702-3.641-2.72-1.063-5.464-2.297-8.223-3.699-1.868-.946-3.736-1.974-5.608-3.067-.257-.15-.517-.298-.775-.451-2.032-1.208-4.062-2.499-6.085-3.87-1.063-.722-2.123-1.466-3.181-2.23-3.048-2.2-6.074-4.575-9.047-7.115-3.056-2.604-6.063-5.377-8.986-8.307-2.932-2.926-5.704-5.931-8.309-8.986.308 3.899.769 7.715 1.369 11.427" fill="#5cafcd"/><path d="m134.229 139.922 4.715-4.713c4.022-4.026 6.168-9.538 6.603-16.034.238-3.524-.035-7.337-.775-11.361-.423-2.271-.993-4.608-1.711-6.997-.525-1.753-1.133-3.533-1.817-5.339-1.781-4.708-4.085-9.57-6.886-14.489-1.19 2.091-2.471 4.188-3.835 6.29-1.339 2.058-2.759 4.121-4.257 6.177 1.398 2.76 2.633 5.505 3.698 8.224.495 1.266.954 2.526 1.372 3.778.223.669.43 1.328.627 1.984.687 2.286 1.218 4.49 1.592 6.602 1.362 7.649.689 14.057-1.985 18.507-4.446 2.67-10.853 3.346-18.504 1.984-.793 1.759-1.626 3.448-2.493 5.059-1.183 2.197-2.431 4.252-3.738 6.154 4.023.745 7.838 1.015 11.361.778 6.495-.437 12.008-2.58 16.033-6.604" fill="#5cafcd"/><path d="m43.373 77.808c-.763 1.058-1.507 2.118-2.228 3.181-1.374 2.023-2.664 4.055-3.872 6.086-.152.258-.301.517-.452.774.153 3.639.433 7.211.822 10.694.241 2.146.519 4.263.842 6.337.395 2.516.85 4.977 1.358 7.379.521 2.451 1.101 4.841 1.736 7.16 1.5 5.457 3.309 10.526 5.375 15.116 2.114-.376 4.316-.905 6.603-1.592.656-.198 1.315-.405 1.985-.629 1.249-.417 2.51-.878 3.776-1.371-1.169-2.675-2.24-5.49-3.2-8.43-.649-1.988-1.246-4.034-1.794-6.128-.077-.291-.155-.58-.23-.873-.582-2.291-1.107-4.639-1.566-7.041-.242-1.261-.465-2.536-.671-3.826-.6-3.712-1.061-7.528-1.369-11.427-.319-4.002-.482-8.087-.482-12.229 0-4.141.163-8.227.482-12.228-2.54 2.975-4.914 5.999-7.115 9.047" fill="#47b178"/><path d="m122.377 98.543c-2.185 2.736-4.51 5.454-6.971 8.132 2.095-.548 4.14-1.146 6.127-1.795.325-2.074.604-4.191.844-6.337" fill="#47b178"/><path d="m37.643 63.435c2.185-2.737 4.51-5.454 6.973-8.132-2.097.549-4.142 1.146-6.131 1.794-.323 2.077-.601 4.192-.842 6.338" fill="#47b178"/><path d="m116.649 84.171c.763-1.059 1.503-2.119 2.229-3.182 1.371-2.024 2.661-4.054 3.869-6.086.153-.257.301-.516.452-.774-.155-3.64-.431-7.21-.822-10.694-.24-2.146-.519-4.261-.844-6.338-.393-2.514-.846-4.975-1.356-7.378-.521-2.452-1.099-4.841-1.738-7.16-1.497-5.457-3.305-10.526-5.373-15.116-2.114.375-4.316.905-6.601 1.593-.658.197-1.317.405-1.987.628-1.251.418-2.512.877-3.776 1.372 1.169 2.675 2.238 5.488 3.198 8.429.651 1.988 1.248 4.033 1.798 6.129.075.291.153.58.227.871.583 2.293 1.106 4.64 1.567 7.042.242 1.262.465 2.537.673 3.826.6 3.71 1.059 7.528 1.367 11.428.317 4.001.483 8.087.483 12.228 0 4.142-.166 8.227-.483 12.229 2.54-2.975 4.914-5.999 7.117-9.047" fill="#47b178"/><g fill="#47b178" transform="translate(41)"><path d="m65.835 16.229c-2.319-3.37-4.828-6.259-7.485-8.583-4.901-4.284-10.315-6.667-16.005-6.667h-6.669c-5.689 0-11.104 2.383-16.006 6.667-2.659 2.324-5.165 5.213-7.485 8.583-1.309 1.902-2.555 3.958-3.738 6.156-.867 1.611-1.7 3.299-2.493 5.059-2.066 4.589-3.875 9.658-5.375 15.115 2.319-.635 4.71-1.216 7.162-1.737 2.403-.509 4.863-.962 7.377-1.357.96-2.941 2.031-5.754 3.2-8.428.546-1.244 1.111-2.462 1.7-3.643.317-.629.638-1.244.961-1.847 1.128-2.101 2.314-4.035 3.542-5.792 4.449-6.375 9.455-10.428 14.49-11.685 5.034 1.257 10.041 5.31 14.489 11.685 1.805-.685 3.586-1.29 5.339-1.818" mask="url(#a)"/><path d="m35.676 161h6.669c5.69 0 11.104-2.384 16.005-6.668 2.657-2.324 5.166-5.213 7.485-8.584 1.307-1.902 2.555-3.957 3.738-6.154.867-1.611 1.7-3.3 2.493-5.059 2.068-4.59 3.876-9.659 5.373-15.116l-7.158 1.736c-2.403.51-4.865.964-7.381 1.358-.96 2.94-2.029 5.755-3.198 8.43-.546 1.242-1.11 2.46-1.702 3.641-.315.629-.636 1.244-.959 1.847-1.128 2.101-2.314 4.036-3.541 5.793-4.448 6.375-9.455 10.426-14.489 11.683-5.035-1.257-10.041-5.308-14.49-11.683-1.806.684-3.585 1.289-5.338 1.816l-6.998 1.708c2.32 3.371 4.826 6.26 7.485 8.584 4.902 4.284 10.317 6.668 16.006 6.668" mask="url(#a)"/></g></g></g></svg>