<svg width="640" height="360" viewBox="0 0 640 360" version="1.1" xmlns="http://www.w3.org/2000/svg" xmlns:xlink="http://www.w3.org/1999/xlink"><title>closeio/picture</title><desc>Created with Sketch.</desc><defs><polygon id="path-1" points="0.231897304 0.389167702 31.0153633 0.389167702 31.0153633 63.9761491 0.231897304 63.9761491"/></defs><g id="closeio/picture" stroke="none" stroke-width="1" fill="none" fill-rule="evenodd"><rect id="Rectangle" fill="#333" x="0" y="0" width="640" height="360"/><g id="close-io-logo-light" transform="translate(160.000000, 148.000000)"><path d="M119.182798,47.3759006 C119.415897,47.3759006 119.614953,47.4573913 119.778362,47.6191801 L121.180159,49.1150311 C120.152041,50.2054161 119.030603,51.1844969 117.816246,52.0538634 C116.601089,52.9236273 115.275389,53.6661863 113.838347,54.2803478 C112.401304,54.8949068 110.824483,55.3703354 109.107481,55.706236 C107.39008,56.0425342 105.503261,56.2106832 103.447825,56.2106832 C100.013022,56.2106832 96.8645854,55.6140124 94.0029166,54.4194783 C91.1408472,53.2253416 88.6877022,51.532323 86.6434814,49.3412174 C84.5988601,47.1501118 83.0044159,44.5006708 81.8601489,41.3932919 C80.7150809,38.2863106 80.1427471,34.8311056 80.1427471,31.0280745 C80.1427471,27.2950062 80.732303,23.8863106 81.9122157,20.8019876 C83.0921284,17.7180621 84.7510552,15.0690186 86.8889961,12.8540621 C89.0265366,10.6402981 91.5850167,8.92382609 94.5636354,7.70663354 C97.5426547,6.48904348 100.83087,5.8804472 104.428683,5.8804472 C106.227389,5.8804472 107.874701,6.01401242 109.370218,6.28034783 C110.864935,6.54708075 112.261525,6.9298882 113.557987,7.42797516 C114.854449,7.92725466 116.075214,8.54698137 117.220282,9.28874534 C118.364549,10.0313043 119.485987,10.8891429 120.584596,11.8630559 L119.498003,13.4280745 C119.310963,13.7063354 119.018988,13.8454658 118.62208,13.8454658 C118.41181,13.8454658 118.142665,13.7238261 117.816246,13.4801491 C117.488626,13.2368696 117.074095,12.9355528 116.571851,12.5758012 C116.069207,12.2168447 115.462028,11.8229068 114.749515,11.3931925 C114.036601,10.9642733 113.189915,10.5703354 112.209058,10.2109814 C111.227399,9.85162733 110.093946,9.54991304 108.809499,9.30623602 C107.524252,9.06295652 106.063979,8.94091925 104.428683,8.94091925 C101.414819,8.94091925 98.6464698,9.45729193 96.1232349,10.4888447 C93.6,11.5211925 91.4272144,12.9935901 89.604878,14.9064348 C87.7825417,16.819677 86.363122,19.1383851 85.3470193,21.8629565 C84.330516,24.5879255 83.8222644,27.6428323 83.8222644,31.0280745 C83.8222644,34.5063354 84.3245083,37.6137143 85.3293967,40.3498137 C86.333484,43.0863106 87.7240668,45.3990559 89.499543,47.2888447 C91.2750193,49.1790311 93.3721078,50.6283727 95.7904082,51.6368696 C98.2083081,52.645764 100.83087,53.1498137 103.657694,53.1498137 C105.433171,53.1498137 107.016,53.0341366 108.406583,52.8019876 C109.796365,52.570236 111.075204,52.2224099 112.243902,51.7585093 C113.4118,51.2950062 114.498393,50.727354 115.503281,50.0539627 C116.507368,49.3821615 117.500642,48.5930932 118.4819,47.6891429 C118.598449,47.5969193 118.709392,47.5209938 118.814727,47.4629565 C118.920062,47.4053168 119.042619,47.3759006 119.182798,47.3759006" id="Fill-1" fill="#FFFFFE"/><polygon id="Fill-2" fill="#FFFFFE" points="132.163841 55.6541615 135.492909 55.6541615 135.492909 5.0456646 132.163841 5.0456646"/><path d="M161.911178,53.4976398 C163.990244,53.4976398 165.806573,53.144646 167.360565,52.4366708 C168.914157,51.7298882 170.210619,50.7150311 171.250352,49.3932919 C172.289684,48.0715528 173.067081,46.4775155 173.58094,44.6107826 C174.094798,42.7444472 174.352329,40.651528 174.352329,38.3324224 C174.352329,36.0371677 174.094798,33.9502112 173.58094,32.0715528 C173.067081,30.1932919 172.289684,28.5877267 171.250352,27.2544596 C170.210619,25.920795 168.914157,24.8948075 167.360565,24.1760994 C165.806573,23.4573913 163.990244,23.0976398 161.911178,23.0976398 C159.831312,23.0976398 158.015384,23.4573913 156.461792,24.1760994 C154.907399,24.8948075 153.610937,25.920795 152.571605,27.2544596 C151.531872,28.5877267 150.749268,30.1932919 150.223394,32.0715528 C149.69792,33.9502112 149.435184,36.0371677 149.435184,38.3324224 C149.435184,40.651528 149.69792,42.7444472 150.223394,44.6107826 C150.749268,46.4775155 151.531872,48.0715528 152.571605,49.3932919 C153.610937,50.7150311 154.907399,51.7298882 156.461792,52.4366708 C158.015384,53.144646 159.831312,53.4976398 161.911178,53.4976398 Z M161.911178,20.4887453 C164.410783,20.4887453 166.647651,20.9124969 168.622182,21.7588075 C170.596313,22.6055155 172.260847,23.8052174 173.616185,25.3583106 C174.971122,26.9121988 176.004847,28.7844969 176.717761,30.976 C177.429874,33.1675031 177.786331,35.6193789 177.786331,38.3324224 C177.786331,41.0454658 177.429874,43.4921739 176.717761,45.6717516 C176.004847,47.8513292 174.971122,49.7180621 173.616185,51.2715528 C172.260847,52.825441 170.596313,54.0195776 168.622182,54.8539627 C166.647651,55.6891429 164.410783,56.1065342 161.911178,56.1065342 C159.410773,56.1065342 157.173905,55.6891429 155.199774,54.8539627 C153.225643,54.0195776 151.555502,52.825441 150.188549,51.2715528 C148.821597,49.7180621 147.781864,47.8513292 147.06935,45.6717516 C146.356436,43.4921739 146.00078,41.0454658 146.00078,38.3324224 C146.00078,35.6193789 146.356436,33.1675031 147.06935,30.976 C147.781864,28.7844969 148.821597,26.9121988 150.188549,25.3583106 C151.555502,23.8052174 153.225643,22.6055155 155.199774,21.7588075 C157.173905,20.9124969 159.410773,20.4887453 161.911178,20.4887453 Z" id="Fill-3" fill="#FFFFFE"/><path d="M205.750983,25.3583106 C205.587173,25.6838758 205.330444,25.8456646 204.979995,25.8456646 C204.722865,25.8456646 204.390039,25.7009689 203.981114,25.4107826 C203.57219,25.1213913 203.035101,24.7966211 202.369448,24.4368696 C201.703394,24.077913 200.885546,23.7531429 199.916303,23.4629565 C198.946259,23.1731677 197.760739,23.0280745 196.358942,23.0280745 C195.097725,23.0280745 193.946249,23.207354 192.907317,23.5663106 C191.867184,23.9248696 190.979646,24.4046708 190.243502,25.0061118 C189.507358,25.6067578 188.935024,26.3063851 188.526501,27.1041988 C188.117576,27.9020124 187.913315,28.7407702 187.913315,29.6192795 C187.913315,30.706087 188.193273,31.6084472 188.754393,32.3255652 C189.315112,33.0422857 190.050855,33.6544596 190.962023,34.163677 C191.873191,34.6720994 192.907317,35.1117516 194.063199,35.4818385 C195.219882,35.852323 196.405402,36.2224099 197.62056,36.5932919 C198.835317,36.9641739 200.020837,37.376 201.17752,37.8279752 C202.334203,38.2803478 203.367928,38.8428323 204.279096,39.5150311 C205.190264,40.1880248 205.926408,41.0104845 206.487127,41.9843975 C207.047846,42.9587081 207.328205,44.1409193 207.328205,45.5322236 C207.328205,47.04 207.053053,48.4424348 206.504349,49.741118 C205.955245,51.0401988 205.161027,52.1647702 204.121694,53.1148323 C203.081561,54.066087 201.802721,54.8193789 200.283974,55.3759006 C198.765227,55.9324224 197.036211,56.2106832 195.097725,56.2106832 C192.64458,56.2106832 190.529469,55.8223106 188.754393,55.0455652 C186.978516,54.2688199 185.389679,53.2543602 183.987882,52.0021863 L184.794116,50.8195776 C184.910665,50.6339379 185.03923,50.495205 185.17981,50.4017888 C185.319589,50.3095652 185.518244,50.2630559 185.775374,50.2630559 C186.078963,50.2630559 186.453042,50.4486957 186.896811,50.8195776 C187.34018,51.1908571 187.918922,51.5903602 188.631435,52.019677 C189.343949,52.4489938 190.231487,52.8488944 191.29485,53.2193789 C192.357813,53.5906584 193.671897,53.7759006 195.237504,53.7759006 C196.709392,53.7759006 198.005854,53.5731677 199.127692,53.1673043 C200.24913,52.7618385 201.183127,52.210882 201.931286,51.5152298 C202.678644,50.8195776 203.245371,50.0018882 203.630665,49.0629565 C204.016359,48.1240248 204.209407,47.1326211 204.209407,46.0891429 C204.209407,44.9299876 203.928647,43.967205 203.367928,43.2019876 C202.80761,42.4367702 202.071466,41.7876273 201.159897,41.2541615 C200.24913,40.7210932 199.215404,40.2687205 198.058721,39.897441 C196.902039,39.5269565 195.710911,39.155677 194.484139,38.784795 C193.257766,38.413913 192.065838,38.0076522 190.909155,37.567205 C189.753273,37.1271553 188.719148,36.570236 187.807979,35.8976398 C186.896811,35.225441 186.161068,34.4081491 185.600349,33.4453665 C185.03923,32.4833789 184.759271,31.2832795 184.759271,29.8454658 C184.759271,28.6163478 185.027615,27.4341366 185.565104,26.2976398 C186.102593,25.1619379 186.867574,24.1645714 187.860447,23.3063354 C188.85332,22.4488944 190.06247,21.7643727 191.487897,21.2543602 C192.912524,20.7443478 194.513376,20.4887453 196.288852,20.4887453 C198.414778,20.4887453 200.301597,20.7952298 201.948508,21.4058137 C203.59582,22.0171925 205.108159,22.9517516 206.487127,24.2110807 L205.750983,25.3583106" id="Fill-4" fill="#FFFFFE"/><path d="M228.676375,22.9585093 C226.879671,22.9585093 225.270008,23.2367702 223.847384,23.7932919 C222.424359,24.3498137 221.193982,25.1500124 220.155451,26.1934907 C219.11732,27.2369689 218.277843,28.4887453 217.636221,29.9500124 C216.994198,31.410882 216.568852,33.0454658 216.358983,34.8541615 L239.313612,34.8541615 C239.313612,32.999354 239.056883,31.3357516 238.543825,29.8629565 C238.030367,28.390559 237.30744,27.1443478 236.374244,26.1239255 C235.441047,25.1039006 234.321212,24.3211925 233.014737,23.7761988 C231.708662,23.2316025 230.262008,22.9585093 228.676375,22.9585093 Z M228.624709,20.4887453 C230.587625,20.4887453 232.403954,20.825441 234.074496,21.4976398 C235.744637,22.1706335 237.193294,23.1501118 238.420067,24.4368696 C239.646439,25.7236273 240.604467,27.3065342 241.293751,29.1843975 C241.982634,31.0630559 242.327476,33.2195776 242.327476,35.6543602 C242.327476,36.1647702 242.251379,36.5125963 242.099584,36.6978385 C241.94819,36.8834783 241.708683,36.9760994 241.382264,36.9760994 L216.219204,36.9760994 L216.219204,37.6367702 C216.219204,40.2341366 216.522393,42.5182609 217.129972,44.4887453 C217.737551,46.4600248 218.602259,48.1120994 219.723697,49.4453665 C220.845135,50.7790311 222.199671,51.7819627 223.788508,52.4541615 C225.377345,53.1271553 227.153222,53.4626584 229.115738,53.4626584 C230.867985,53.4626584 232.386331,53.2714534 233.671579,52.8890435 C234.956026,52.506236 236.037012,52.0777143 236.913335,51.6022857 C237.789258,51.1268571 238.484149,50.6975404 238.998408,50.3147329 C239.511866,49.9327205 239.885946,49.741118 240.119846,49.741118 C240.423035,49.741118 240.656534,49.8575901 240.820745,50.0889441 L241.731913,51.2019876 C241.171194,51.8976398 240.429042,52.5471801 239.506259,53.1498137 C238.583476,53.7532422 237.555358,54.2688199 236.422306,54.6977391 C235.288852,55.1270559 234.074496,55.4689193 232.778033,55.7237267 C231.481171,55.9785342 230.1783,56.1065342 228.870223,56.1065342 C226.487569,56.1065342 224.314383,55.6947081 222.351866,54.8714534 C220.38935,54.0485963 218.705191,52.8488944 217.299789,51.2715528 C215.894388,49.6950062 214.807795,47.7642733 214.040811,45.4801491 C213.273027,43.1964224 212.889736,40.5819627 212.889736,37.6367702 C212.889736,35.1558758 213.245792,32.8661863 213.958706,30.7673043 C214.67122,28.6688199 215.698937,26.8605217 217.04266,25.3412174 C218.385982,23.8227081 220.032893,22.6341366 221.983795,21.7759006 C223.934696,20.9180621 226.148334,20.4887453 228.624709,20.4887453 Z" id="Fill-5" fill="#FFFFFE"/><path d="M248.499389,52.9760994 C248.499389,52.5356522 248.581494,52.1186584 248.744904,51.723528 C248.907913,51.3295901 249.135805,50.9881242 249.42818,50.6975404 C249.720154,50.4081491 250.058988,50.176 250.444683,50.0018882 C250.829977,49.8281739 251.256123,49.741118 251.723522,49.741118 C252.167291,49.741118 252.587831,49.8281739 252.98554,50.0018882 C253.382449,50.176 253.72649,50.4081491 254.019266,50.6975404 C254.31084,50.9881242 254.544739,51.3295901 254.720164,51.723528 C254.895189,52.1186584 254.982901,52.5356522 254.982901,52.9760994 C254.982901,53.44 254.895189,53.8629565 254.720164,54.2453665 C254.544739,54.6281739 254.31084,54.964472 254.019266,55.2542609 C253.72649,55.5444472 253.382449,55.7698385 252.98554,55.9324224 C252.587831,56.0946087 252.167291,56.1760994 251.723522,56.1760994 C250.812755,56.1760994 250.046973,55.8684224 249.42818,55.2542609 C248.808986,54.6400994 248.499389,53.8800497 248.499389,52.9760994" id="Fill-6" fill="#FFFFFE"/><path d="M266.121982,55.6541615 L269.45105,55.6541615 L269.45105,21.0456646 L266.121982,21.0456646 L266.121982,55.6541615 Z M270.922937,9.11503106 C270.922937,9.53242236 270.835225,9.92119255 270.6602,10.2805466 C270.484775,10.6402981 270.257284,10.9587081 269.976924,11.2369689 C269.696164,11.5152298 269.368945,11.7358509 268.995266,11.8976398 C268.621587,12.0602236 268.224678,12.1409193 267.804139,12.1409193 C267.383599,12.1409193 266.98589,12.0602236 266.612211,11.8976398 C266.238531,11.7358509 265.911312,11.5152298 265.631353,11.2369689 C265.350994,10.9587081 265.128308,10.6402981 264.965299,10.2805466 C264.80189,9.92119255 264.720185,9.53242236 264.720185,9.11503106 C264.720185,8.69763975 264.80189,8.29773913 264.965299,7.91493168 C265.128308,7.53252174 265.350994,7.20178882 265.631353,6.92392547 C265.911312,6.64526708 266.238531,6.42544099 266.612211,6.26285714 C266.98589,6.10106832 267.383599,6.01957764 267.804139,6.01957764 C268.224678,6.01957764 268.621587,6.10106832 268.995266,6.26285714 C269.368945,6.42544099 269.696164,6.64526708 269.976924,6.92392547 C270.257284,7.20178882 270.484775,7.53252174 270.6602,7.91493168 C270.835225,8.29773913 270.922937,8.69763975 270.922937,9.11503106 Z" id="Fill-7" fill="#FFFFFE"/><path d="M295.86932,53.4976398 C297.947985,53.4976398 299.764714,53.144646 301.318706,52.4366708 C302.871897,51.7298882 304.16876,50.7150311 305.208493,49.3932919 C306.247825,48.0715528 307.024822,46.4775155 307.539081,44.6107826 C308.05294,42.7444472 308.310069,40.651528 308.310069,38.3324224 C308.310069,36.0371677 308.05294,33.9502112 307.539081,32.0715528 C307.024822,30.1932919 306.247825,28.5877267 305.208493,27.2544596 C304.16876,25.920795 302.871897,24.8948075 301.318706,24.1760994 C299.764714,23.4573913 297.947985,23.0976398 295.86932,23.0976398 C293.789453,23.0976398 291.973125,23.4573913 290.419933,24.1760994 C288.865941,24.8948075 287.568678,25.920795 286.529746,27.2544596 C285.490013,28.5877267 284.707409,30.1932919 284.181535,32.0715528 C283.656062,33.9502112 283.393325,36.0371677 283.393325,38.3324224 C283.393325,40.651528 283.656062,42.7444472 284.181535,44.6107826 C284.707409,46.4775155 285.490013,48.0715528 286.529746,49.3932919 C287.568678,50.7150311 288.865941,51.7298882 290.419933,52.4366708 C291.973125,53.144646 293.789453,53.4976398 295.86932,53.4976398 Z M295.86932,20.4887453 C298.368924,20.4887453 300.605792,20.9124969 302.580323,21.7588075 C304.554454,22.6055155 306.218988,23.8052174 307.574326,25.3583106 C308.928863,26.9121988 309.962588,28.7844969 310.675902,30.976 C311.388015,33.1675031 311.744472,35.6193789 311.744472,38.3324224 C311.744472,41.0454658 311.388015,43.4921739 310.675902,45.6717516 C309.962588,47.8513292 308.928863,49.7180621 307.574326,51.2715528 C306.218988,52.825441 304.554454,54.0195776 302.580323,54.8539627 C300.605792,55.6891429 298.368924,56.1065342 295.86932,56.1065342 C293.368914,56.1065342 291.132046,55.6891429 289.157915,54.8539627 C287.183384,54.0195776 285.513643,52.825441 284.146691,51.2715528 C282.779738,49.7180621 281.740005,47.8513292 281.027492,45.6717516 C280.314578,43.4921739 279.958521,41.0454658 279.958521,38.3324224 C279.958521,35.6193789 280.314578,33.1675031 281.027492,30.976 C281.740005,28.7844969 282.779738,26.9121988 284.146691,25.3583106 C285.513643,23.8052174 287.183384,22.6055155 289.157915,21.7588075 C291.132046,20.9124969 293.368914,20.4887453 295.86932,20.4887453 Z" id="Fill-8" fill="#FFFFFE"/><path d="M64.0901669,33.5200994 L64.0901669,30.8690683 C64.0901669,28.6068075 63.1361438,26.4546584 61.4199435,24.5064348 C60.4887497,23.4498385 59.3320668,22.4528696 57.9831374,21.5310311 C57.2205597,21.0114783 56.397104,20.5153789 55.5171759,20.0447205 C54.8719487,19.700472 54.1962824,19.3697391 53.4905777,19.0545093 C51.6530218,18.2320497 49.622819,17.5133416 47.4364159,16.9178634 C47.692344,17.8397019 47.9238408,18.7893665 48.1325083,19.7640745 C48.3367702,20.7193043 48.5182028,21.6975901 48.6756046,22.6969441 C49.8535148,23.079354 50.9813607,23.5042981 52.0523338,23.9689938 C52.550172,24.1860373 53.0375969,24.4106335 53.5102028,24.6451677 C53.7629268,24.7703851 54.0088421,24.8975901 54.2507522,25.0267826 C55.0918306,25.4755776 55.8668241,25.9466335 56.5701258,26.4347826 C59.1237997,28.2025342 60.7474814,30.1932919 61.2505263,32.1943851 C60.7474814,34.1954783 59.1237997,36.185441 56.5701258,37.9539876 C56.844077,38.6719006 57.0875892,39.3794783 57.2978588,40.076323 C57.5854275,41.0259876 57.8137202,41.9549814 57.9831374,42.8577391 C59.3320668,41.9359006 60.4887497,40.9389317 61.4199435,39.8823354 C63.1361438,37.9337143 64.0901669,35.7819627 64.0901669,33.5200994" id="Fill-9" fill="#2F577E"/><path d="M25.0148703,49.035528 C23.918665,48.1677516 22.8300693,47.2431304 21.7574942,46.2648447 C21.9769756,47.0972422 22.2160822,47.910559 22.4760154,48.7008199 C23.3082824,48.8296149 24.1553684,48.9401242 25.0148703,49.035528" id="Fill-10" fill="#2F577E"/><path d="M30.7714506,46.7581615 C31.1951938,47.0618634 31.6197381,47.3576149 32.045484,47.6446211 C32.8557227,48.1896149 33.6687651,48.7028075 34.4826085,49.1830062 C34.5859409,49.2438261 34.6900745,49.3026584 34.7930064,49.3622857 C36.2500745,49.3010683 37.6795071,49.191354 39.0760976,49.035528 C39.9355995,48.9401242 40.7826855,48.8296149 41.6133504,48.7008199 C42.6210424,48.5441988 43.6071065,48.3637267 44.5695404,48.1609938 C45.5515995,47.9542857 46.5076252,47.7233292 47.4364159,47.4709068 C49.622819,46.8750311 51.6530218,46.156323 53.4905777,45.3342609 C53.3407856,44.4947081 53.128113,43.6185839 52.8529602,42.7098634 C52.7740591,42.4490932 52.6911528,42.1871304 52.6018383,41.9211925 C52.4344236,41.4235031 52.2505879,40.9226335 52.0523338,40.4193789 C50.9813607,40.884472 49.8535148,41.3098137 48.6756046,41.6914286 C47.8797843,41.9494161 47.0607343,42.1871304 46.2216585,42.4049689 C46.1051091,42.4355776 45.9885597,42.4669814 45.8720103,42.496 C44.9536329,42.727354 44.0144288,42.9360497 43.0519949,43.1189068 C42.5465469,43.2155031 42.0354917,43.3037516 41.5200308,43.3868323 C40.0329243,43.6249441 38.5057664,43.8078012 36.9429628,43.9298385 C35.3405083,44.0570435 33.7036098,44.1218385 32.045484,44.1218385 C30.3865571,44.1218385 28.7504596,44.0570435 27.1480051,43.9298385 C28.3387317,44.939528 29.5506855,45.8836273 30.7714506,46.7581615" id="Fill-11" fill="#2F577E"/><path d="M11.2372067,21.6785093 C11.3161078,21.939677 11.3998151,22.2020373 11.4891297,22.4675776 C11.6557433,22.9648696 11.84038,23.4661366 12.0382336,23.9689938 C13.1096072,23.5042981 14.2366521,23.079354 15.4137612,22.6969441 C16.2103825,22.439354 17.0294326,22.2020373 17.8693094,21.9838012 C17.9850578,21.952795 18.1016072,21.9221863 18.2181566,21.8927702 C19.136534,21.6614161 20.0765392,21.4527205 21.038172,21.2698634 C21.54362,21.1736646 22.0546752,21.0846211 22.5701361,21.0027329 C24.0572426,20.7634286 25.5852015,20.5813665 27.1480051,20.4585342 C28.7504596,20.3321242 30.3865571,20.2673292 32.045484,20.2673292 C33.7036098,20.2673292 35.3405083,20.3321242 36.9429628,20.4585342 C35.7514352,19.4496398 34.5402824,18.5055404 33.3195173,17.6302112 C32.8957741,17.3273043 32.4708293,17.0307578 32.045484,16.7445466 C31.2344442,16.1987578 30.4214018,15.6863602 29.6075584,15.2061615 C29.5038254,15.1445466 29.4008935,15.0861118 29.2979615,15.0264845 C27.8396919,15.0873043 26.4098588,15.1978137 25.0148703,15.3528447 C24.1553684,15.4482484 23.3082824,15.5591553 22.4760154,15.6879503 C21.4691245,15.8449689 20.4834608,16.0250435 19.5214275,16.2273789 C18.5393684,16.4344845 17.5817407,16.665441 16.6529499,16.9178634 C14.4681489,17.5133416 12.4379461,18.2320497 10.5995892,19.0545093 C10.7493813,19.8940621 10.9612529,20.7697888 11.2372067,21.6785093" id="Fill-12" fill="#2F577E"/><path d="M39.0760976,15.3528447 C40.1715019,16.2210186 41.2600976,17.1460373 42.3334737,18.124323 C42.1131913,17.2911304 41.8740847,16.4782112 41.6133504,15.6879503 C40.7826855,15.5591553 39.9355995,15.4482484 39.0760976,15.3528447" id="Fill-13" fill="#2F577E"/><path d="M2.84044159,32.1943851 C3.34348652,30.1932919 4.96676765,28.2025342 7.52004108,26.4347826 C7.24528883,25.7168696 7.00337869,25.0092919 6.79310911,24.3120497 C6.50393838,23.3623851 6.27644673,22.4333913 6.10783055,21.5310311 C4.75810013,22.4528696 3.6014172,23.4498385 2.67022336,24.5064348 C0.954824134,26.4546584 0,28.6068075 0,30.8690683 L0,33.5200994 C0,35.7819627 0.954824134,37.9337143 2.67022336,39.8823354 C3.6014172,40.9389317 4.75810013,41.9359006 6.10783055,42.8577391 C6.86960719,43.3772919 7.69346341,43.8733913 8.57379204,44.3432547 C9.21821823,44.6886957 9.89468549,45.0186335 10.5995892,45.3342609 C12.4379461,46.156323 14.4681489,46.8750311 16.6529499,47.4709068 C16.3986239,46.5490683 16.1663261,45.5990062 15.9576585,44.6246957 C15.7541977,43.6698634 15.5719641,42.6915776 15.4137612,41.6914286 C14.2366521,41.3098137 13.1096072,40.884472 12.0382336,40.4193789 C11.5407959,40.2027329 11.05257,39.9785342 10.5799641,39.7436025 C10.3272401,39.6179876 10.0821258,39.4911801 9.84021566,39.3623851 C8.99833633,38.912795 8.22374326,38.4417391 7.52004108,37.9539876 C4.96676765,36.185441 3.34348652,34.1954783 2.84044159,32.1943851" id="Fill-14" fill="#2F577E"/><path d="M39.0760976,49.035528 C37.6795071,49.191354 36.2500745,49.3010683 34.7930064,49.3622857 C35.5427677,49.7967702 36.2909268,50.2054161 37.039086,50.5814658 C37.7195584,50.0881491 38.3996303,49.5721739 39.0760976,49.035528" id="Fill-15" fill="#F4B563"/><path d="M55.6489448,10.6414907 L53.7605237,8.76720497 C52.148457,7.16760248 49.9404262,6.31572671 47.3390911,6.14240994 C45.9280822,6.04819876 44.4001232,6.15592547 42.7888575,6.4512795 C41.8796919,6.61863354 40.9428909,6.84481988 39.9868652,7.13023602 C39.2847651,7.34012422 38.5714506,7.58062112 37.8485237,7.85291925 C35.9625058,8.56089441 34.0152092,9.47677019 32.045484,10.5910062 C32.8813556,11.0632547 33.7224339,11.5720745 34.5647137,12.1146832 C35.3889705,12.6461615 36.2152298,13.2114286 37.039086,13.8069068 C38.1441027,13.2503851 39.2435122,12.7598509 40.3325083,12.3372919 C40.8387574,12.1405217 41.3438049,11.9580621 41.8448472,11.7919006 C42.1131913,11.7032547 42.3771297,11.6205714 42.6406675,11.5422609 C43.5558408,11.2687702 44.4377715,11.058087 45.284457,10.9090186 C48.3487856,10.3676025 50.9148755,10.636323 52.6955584,11.698087" id="Fill-16" fill="#F4B563"/><path d="M52.6955584,11.698087 C53.7665315,13.466236 54.036077,16.0127205 53.4905777,19.0545093 C54.1962824,19.3697391 54.8719487,19.700472 55.5171759,20.0447205 C56.397104,20.5153789 57.2205597,21.0114783 57.9831374,21.5310311 C58.2795173,19.9318261 58.3888575,18.4160994 58.2935353,17.0148571 C58.1193119,14.4329938 57.25981,12.2418882 55.6489448,10.6414907 C55.3309371,10.3266584 54.9892991,10.0412422 54.6260334,9.78245963" id="Fill-17" fill="#F4B563"/><path d="M41.5200308,43.3868323 C42.0354917,43.3037516 42.5465469,43.2155031 43.0519949,43.1189068 C44.0144288,42.9360497 44.9536329,42.727354 45.8720103,42.496 C45.9885597,42.4669814 46.1051091,42.4355776 46.2216585,42.4049689 C47.2073222,41.3404224 48.138516,40.2599752 49.013638,39.1723727 C49.5539307,38.5013665 50.0733967,37.8263851 50.5712349,37.1502112 C51.1712041,36.3329193 51.7399332,35.5128447 52.2762208,34.6947578 C52.8225212,33.8591801 53.3355789,33.0255901 53.81219,32.1943851 C54.9340282,30.2386087 55.8568113,28.3062857 56.5701258,26.4347826 C55.8668241,25.9466335 55.0918306,25.4755776 54.2507522,25.0267826 C54.0088421,24.8975901 53.7629268,24.7703851 53.5102028,24.6451677 C53.0375969,24.4106335 52.550172,24.1860373 52.0523338,23.9689938 C51.6257869,25.050236 51.1311528,26.1418137 50.5712349,27.238559 C50.1915481,27.980323 49.7802208,28.7232795 49.3428601,29.4674286 C49.2823825,29.5699876 49.2231065,29.6729441 49.161828,29.7751056 C48.6780077,30.5828571 48.1613453,31.3898137 47.6122413,32.1943851 C47.3214685,32.6169441 47.0250886,33.0383106 46.7194968,33.4592795 C45.8371656,34.6709068 44.8863466,35.8729938 43.8690424,37.0556025 C42.8261053,38.2700124 41.7146804,39.4645466 40.5419769,40.628472 C39.370475,41.7923975 38.166932,42.8947081 36.9429628,43.9298385 C38.5057664,43.8078012 40.0329243,43.6249441 41.5200308,43.3868323" id="Fill-18" fill="#F4B563"/><path d="M25.0148703,15.3528447 C26.4098588,15.1978137 27.8396919,15.0873043 29.2979615,15.0264845 C28.5473992,14.5916025 27.7992401,14.1837516 27.0514814,13.8069068 C26.3706085,14.3006211 25.6913376,14.8165963 25.0148703,15.3528447" id="Fill-19" fill="#F4B563"/><path d="M11.3938074,52.6910807 C10.3240359,50.9221366 10.0532888,48.3748571 10.5995892,45.3342609 C9.89468549,45.0186335 9.21821823,44.6886957 8.57379204,44.3432547 C7.69346341,43.8733913 6.86960719,43.3772919 6.10783055,42.8577391 C5.80944801,44.4573416 5.7021104,45.9730683 5.79663158,47.373913 C5.97165597,49.9561739 6.82915533,52.1472795 8.44162259,53.747677 L10.3304442,55.6211677 C11.9417099,57.2207702 14.1497407,58.072646 16.7510757,58.2463602 C18.1628858,58.3405714 19.6900436,58.2332422 21.3013094,57.9370932 C22.2108755,57.7701366 23.147276,57.5439503 24.1041027,57.2581366 C24.8062028,57.048646 25.5187163,56.8081491 26.2420436,56.5362484 C28.1276611,55.8274783 30.0749576,54.9116025 32.045484,53.7981615 C31.2088113,53.325118 30.367733,52.8159006 29.5258537,52.274087 C28.7019974,51.7422112 27.8757381,51.1773416 27.0514814,50.5814658 C25.9468652,51.1387826 24.8470552,51.6293168 23.7576585,52.0518758 C23.2506085,52.2478509 22.745561,52.4311056 22.2453196,52.5968696 C21.9769756,52.685913 21.7130372,52.7681988 21.4503004,52.8469068 C20.5343261,53.12 19.6523954,53.3302857 18.8057099,53.4797516 C15.7413813,54.0211677 13.1760924,53.7524472 11.3938074,52.6910807" id="Fill-20" fill="#F4B563"/><path d="M9.84021566,39.3623851 C10.0821258,39.4911801 10.3272401,39.6179876 10.5799641,39.7436025 C11.05257,39.9785342 11.5407959,40.2027329 12.0382336,40.4193789 C12.4635789,39.3385342 12.9582131,38.247354 13.519733,37.1502112 C13.8986187,36.4084472 14.3099461,35.6654907 14.7473068,34.9213416 C14.8077843,34.8191801 14.8674608,34.7162236 14.9283389,34.6136646 C15.4121592,33.8063106 15.9288216,32.998559 16.4791271,32.1943851 C16.7678973,31.7718261 17.0658793,31.3504596 17.3714711,30.9298882 C18.2530013,29.7182609 19.2038203,28.5161739 20.2211245,27.3335652 C21.2644621,26.1187578 22.3746855,24.9246211 23.548991,23.7610932 C24.7196919,22.5963727 25.9240359,21.4940621 27.1480051,20.4585342 C25.5852015,20.5813665 24.0572426,20.7634286 22.5701361,21.0027329 C22.0546752,21.0846211 21.54362,21.1736646 21.038172,21.2698634 C20.0765392,21.4527205 19.136534,21.6614161 18.2181566,21.8927702 C18.1016072,21.9221863 17.9850578,21.952795 17.8693094,21.9838012 C16.8828447,23.0483478 15.9516508,24.1283975 15.0765289,25.2163975 C14.5362362,25.8874037 14.0163697,26.5623851 13.518932,27.238559 C12.9189628,28.0558509 12.3502336,28.875528 11.8139461,29.6936149 C11.2676457,30.5299876 10.7545879,31.3631801 10.2787779,32.1943851 C9.15613864,34.149764 8.23335558,36.0824845 7.52004108,37.9539876 C8.22374326,38.4417391 8.99833633,38.912795 9.84021566,39.3623851" id="Fill-21" fill="#F4B563"/><path d="M15.0765289,39.1723727 C14.9207291,37.7878261 14.8085854,36.3679006 14.7473068,34.9213416 C14.3099461,35.6654907 13.8986187,36.4084472 13.519733,37.1502112 C14.0163697,37.8263851 14.5362362,38.5013665 15.0765289,39.1723727" id="Fill-22" fill="#5CAFCD"/><path d="M11.3938074,11.698087 C13.1760924,10.636323 15.7421823,10.3676025 18.8057099,10.9094161 C19.1233171,10.2097888 19.4569448,9.53878261 19.80419,8.89838509 C20.2779974,8.02464596 20.7770372,7.20735404 21.3013094,6.4512795 C19.6900436,6.15592547 18.1628858,6.04819876 16.7510757,6.14240994 C14.1497407,6.31572671 11.9417099,7.16760248 10.3304442,8.76720497 C10.0124365,9.08322981 9.72526829,9.42270807 9.4641335,9.78245963 C9.72526829,9.42270807 10.0124365,9.08322981 10.3304442,8.76720497 L8.44162259,10.6414907 C6.82915533,12.2418882 5.97165597,14.4329938 5.79663158,17.0148571 C5.7021104,18.4160994 5.80944801,19.9318261 6.10783055,21.5310311 C6.27644673,22.4333913 6.50393838,23.3623851 6.79310911,24.3120497 C7.00337869,25.0092919 7.24528883,25.7168696 7.52004108,26.4347826 C8.23335558,28.3062857 9.15613864,30.2386087 10.2787779,32.1943851 C10.7545879,31.3631801 11.2676457,30.5299876 11.8139461,29.6936149 C12.3502336,28.875528 12.9189628,28.0558509 13.518932,27.238559 C12.9582131,26.1418137 12.4635789,25.050236 12.0382336,23.9689938 C11.84038,23.4661366 11.6557433,22.9648696 11.4891297,22.4675776 C11.3998151,22.2020373 11.3161078,21.939677 11.2372067,21.6785093 C10.9612529,20.7697888 10.7493813,19.8940621 10.5995892,19.0545093 C10.0532888,16.013118 10.3240359,13.466236 11.3938074,11.698087" id="Fill-23" fill="#5CAFCD"/><path d="M49.013638,25.2163975 C49.1702388,26.6013416 49.2807805,28.020472 49.3428601,29.4674286 C49.7802208,28.7232795 50.1915481,27.980323 50.5712349,27.238559 C50.0733967,26.5623851 49.5539307,25.8874037 49.013638,25.2163975" id="Fill-24" fill="#5CAFCD"/><path d="M43.3215404,22.7907578 C43.2378331,22.2783602 43.1489191,21.771528 43.0519949,21.2698634 C42.8673582,20.3150311 42.6578896,19.3820621 42.4243902,18.470559 C42.3947522,18.354882 42.3635122,18.24 42.3334737,18.124323 C41.2600976,17.1460373 40.1715019,16.2210186 39.0760976,15.3528447 C38.3996303,14.8165963 37.7195584,14.3006211 37.039086,13.8069068 C36.2152298,13.2114286 35.3889705,12.6461615 34.5647137,12.1146832 C33.7224339,11.5720745 32.8813556,11.0632547 32.045484,10.5910062 C30.0749576,9.47677019 28.1276611,8.56089441 26.2420436,7.85291925 C25.7502131,8.55135404 25.2752041,9.32014907 24.8234249,10.1553292 C24.6940591,10.3950311 24.5654942,10.6395031 24.4385315,10.8895404 C24.202629,11.3590062 23.9763389,11.8431801 23.7576585,12.3376894 C24.8470552,12.7598509 25.9468652,13.2503851 27.0514814,13.8069068 C27.7992401,14.1837516 28.5473992,14.5916025 29.2979615,15.0264845 C29.4008935,15.0861118 29.5038254,15.1445466 29.6075584,15.2061615 C30.4214018,15.6863602 31.2344442,16.1987578 32.045484,16.7445466 C32.4708293,17.0307578 32.8957741,17.3273043 33.3195173,17.6302112 C34.5402824,18.5055404 35.7514352,19.4496398 36.9429628,20.4585342 C38.166932,21.4940621 39.370475,22.5963727 40.5419769,23.7610932 C41.7146804,24.9246211 42.8261053,26.1187578 43.8690424,27.3335652 C43.7456842,25.7832547 43.5618485,24.2655404 43.3215404,22.7907578" id="Fill-25" fill="#5CAFCD"/><path d="M20.7694275,41.5980124 C20.8519332,42.1108075 20.9412478,42.6176398 21.038172,43.1189068 C21.2220077,44.0737391 21.4322773,45.0071056 21.6653761,45.9178137 C21.6954146,46.0342857 21.7266547,46.1491677 21.7574942,46.2648447 C22.8300693,47.2431304 23.918665,48.1677516 25.0148703,49.035528 C25.6913376,49.5721739 26.3706085,50.0881491 27.0514814,50.5814658 C27.8757381,51.1773416 28.7019974,51.7422112 29.5258537,52.274087 C30.367733,52.8159006 31.2088113,53.325118 32.045484,53.7981615 C34.0152092,54.9116025 35.9625058,55.8274783 37.8485237,56.5362484 C38.3399538,55.8378137 38.8149628,55.0686211 39.266742,54.233441 C39.3961078,53.9937391 39.5246727,53.7492671 39.6508344,53.4992298 C39.8879384,53.029764 40.113828,52.5455901 40.3325083,52.0518758 C39.2435122,51.6293168 38.1441027,51.1387826 37.039086,50.5814658 C36.2909268,50.2054161 35.5427677,49.7967702 34.7930064,49.3622857 C34.6900745,49.3026584 34.5859409,49.2438261 34.4826085,49.1830062 C33.6687651,48.7028075 32.8557227,48.1896149 32.045484,47.6446211 C31.6197381,47.3576149 31.1951938,47.0618634 30.7714506,46.7581615 C29.5506855,45.8836273 28.3387317,44.939528 27.1480051,43.9298385 C25.9240359,42.8947081 24.7196919,41.7923975 23.548991,40.627677 C22.3746855,39.4645466 21.2644621,38.2700124 20.2211245,37.0556025 C20.3444827,38.6055155 20.5291194,40.1224348 20.7694275,41.5980124" id="Fill-26" fill="#5CAFCD"/><path d="M53.7605237,55.6211677 L55.6489448,53.747677 C57.25981,52.1472795 58.1193119,49.9561739 58.2935353,47.373913 C58.3888575,45.9730683 58.2795173,44.4573416 57.9831374,42.8577391 C57.8137202,41.9549814 57.5854275,41.0259876 57.2978588,40.076323 C57.0875892,39.3794783 56.844077,38.6719006 56.5701258,37.9539876 C55.8568113,36.0824845 54.9340282,34.149764 53.81219,32.1943851 C53.3355789,33.0255901 52.8225212,33.8591801 52.2762208,34.6947578 C51.7399332,35.5128447 51.1712041,36.3329193 50.5712349,37.1502112 C51.1311528,38.247354 51.6257869,39.3385342 52.0523338,40.4193789 C52.2505879,40.9226335 52.4344236,41.4235031 52.6018383,41.9211925 C52.6911528,42.1871304 52.7740591,42.4490932 52.8529602,42.7098634 C53.128113,43.6185839 53.3407856,44.4947081 53.4905777,45.3342609 C54.036077,48.3748571 53.7665315,50.9221366 52.6955584,52.6910807 C50.9148755,53.7524472 48.3487856,54.0211677 45.284457,53.4797516 C44.9668498,54.1789814 44.6332221,54.8503851 44.2859769,55.4907826 C43.8121694,56.3641242 43.3123286,57.1810186 42.7888575,57.9370932 C44.4001232,58.2332422 45.9280822,58.3405714 47.3390911,58.2463602 C49.9404262,58.072646 52.148457,57.2207702 53.7605237,55.6211677" id="Fill-27" fill="#5CAFCD"/><path d="M17.3714711,30.9298882 C17.0658793,31.3504596 16.7678973,31.7718261 16.4791271,32.1943851 C15.9288216,32.998559 15.4121592,33.8063106 14.9283389,34.6136646 C14.8674608,34.7162236 14.8077843,34.8191801 14.7473068,34.9213416 C14.8085854,36.3679006 14.9207291,37.7878261 15.0765289,39.1723727 C15.1730526,40.025441 15.2843954,40.8669814 15.4137612,41.6914286 C15.5719641,42.6915776 15.7541977,43.6698634 15.9576585,44.6246957 C16.1663261,45.5990062 16.3986239,46.5490683 16.6529499,47.4709068 C17.2537202,49.6401491 17.978249,51.6551553 18.8057099,53.4797516 C19.6523954,53.3302857 20.5343261,53.12 21.4503004,52.8469068 C21.7130372,52.7681988 21.9769756,52.685913 22.2453196,52.5968696 C22.745561,52.4311056 23.2506085,52.2478509 23.7576585,52.0518758 C23.2894583,50.9885217 22.8605083,49.8695155 22.4760154,48.7008199 C22.2160822,47.910559 21.9769756,47.0972422 21.7574942,46.2648447 C21.7266547,46.1491677 21.6954146,46.0342857 21.6653761,45.9178137 C21.4322773,45.0071056 21.2220077,44.0737391 21.038172,43.1189068 C20.9412478,42.6176398 20.8519332,42.1108075 20.7694275,41.5980124 C20.5291194,40.1224348 20.3444827,38.6055155 20.2211245,37.0556025 C20.0933607,35.4647453 20.028077,33.8408944 20.028077,32.1943851 C20.028077,30.5482733 20.0933607,28.9240248 20.2211245,27.3335652 C19.2038203,28.5161739 18.2530013,29.7182609 17.3714711,30.9298882" id="Fill-28" fill="#47B178"/><path d="M49.013638,39.1723727 C48.138516,40.2599752 47.2073222,41.3404224 46.2216585,42.4049689 C47.0607343,42.1871304 47.8797843,41.9494161 48.6756046,41.6914286 C48.8057715,40.8669814 48.9175148,40.025441 49.013638,39.1723727" id="Fill-29" fill="#47B178"/><path d="M15.0765289,25.2163975 C15.9516508,24.1283975 16.8828447,23.0483478 17.8693094,21.9838012 C17.0294326,22.2020373 16.2103825,22.439354 15.4137612,22.6969441 C15.2843954,23.5225839 15.1730526,24.3633292 15.0765289,25.2163975" id="Fill-30" fill="#47B178"/><path d="M46.7194968,33.4592795 C47.0250886,33.0383106 47.3214685,32.6169441 47.6122413,32.1943851 C48.1613453,31.3898137 48.6780077,30.5828571 49.161828,29.7751056 C49.2231065,29.6729441 49.2823825,29.5699876 49.3428601,29.4674286 C49.2807805,28.020472 49.1702388,26.6013416 49.013638,25.2163975 C48.9175148,24.3633292 48.8057715,23.5225839 48.6756046,22.6969441 C48.5182028,21.6975901 48.3367702,20.7193043 48.1325083,19.7640745 C47.9238408,18.7893665 47.692344,17.8397019 47.4364159,16.9178634 C46.8368472,14.7486211 46.1127189,12.7336149 45.284457,10.9090186 C44.4377715,11.058087 43.5558408,11.2687702 42.6406675,11.5422609 C42.3771297,11.6205714 42.1131913,11.7032547 41.8448472,11.7919006 C41.3438049,11.9580621 40.8387574,12.1405217 40.3325083,12.3372919 C40.8007086,13.400646 41.2288575,14.5188571 41.6133504,15.6879503 C41.8740847,16.4782112 42.1131913,17.2911304 42.3334737,18.124323 C42.3635122,18.24 42.3947522,18.354882 42.4243902,18.470559 C42.6578896,19.3820621 42.8673582,20.3150311 43.0519949,21.2698634 C43.1489191,21.771528 43.2382336,22.2783602 43.3215404,22.7907578 C43.5618485,24.2655404 43.7456842,25.7832547 43.8690424,27.3335652 C43.9960051,28.9240248 44.0624904,30.5482733 44.0624904,32.1943851 C44.0624904,33.8408944 43.9960051,35.4647453 43.8690424,37.0556025 C44.8863466,35.8729938 45.8371656,34.6709068 46.7194968,33.4592795" id="Fill-31" fill="#47B178"/><g id="Group-35" transform="translate(16.421053, 0.000000)"><mask id="mask-2" fill="#fff"><use xlink:href="#path-1"/></mask><path d="M26.3678049,6.4512795 C25.4390141,5.11165217 24.4341258,3.96322981 23.3699615,3.03940373 C21.4070449,1.3364472 19.238665,0.389167702 16.9597433,0.389167702 L14.2887189,0.389167702 C12.0101977,0.389167702 9.8414172,1.3364472 7.87810013,3.03940373 C6.81313479,3.96322981 5.80944801,5.11165217 4.88025674,6.4512795 C4.3559846,7.20735404 3.8569448,8.02464596 3.38313736,8.89838509 C3.03589217,9.53878261 2.70226444,10.2097888 2.38465725,10.9094161 C1.55719641,12.7336149 0.832667522,14.7486211 0.231897304,16.9178634 C1.16068806,16.665441 2.11831579,16.4344845 3.10037484,16.2273789 C4.06240822,16.0250435 5.04807189,15.8449689 6.05496277,15.6879503 C6.43945571,14.5188571 6.86840565,13.400646 7.33660591,12.3376894 C7.55528626,11.8431801 7.78157638,11.3590062 8.01747882,10.8895404 C8.14444159,10.6395031 8.27300642,10.3950311 8.40237227,10.1553292 C8.85415148,9.32014907 9.32916046,8.55135404 9.82099101,7.85291925 C11.6028755,5.31875776 13.607846,3.70762733 15.6244313,3.20795031 C17.6402157,3.70762733 19.6459872,5.31875776 21.4274711,7.85291925 C22.1503979,7.58062112 22.8637125,7.34012422 23.5658126,7.13023602" id="Fill-32" fill="#47B178" mask="url(#mask-2)"/><path d="M14.2887189,64 L16.9597433,64 C19.238665,64 21.4070449,63.052323 23.3699615,61.3493665 C24.4341258,60.4255404 25.4390141,59.277118 26.3678049,57.9370932 C26.891276,57.1810186 27.3911168,56.3641242 27.8649243,55.4907826 C28.2121694,54.8503851 28.5457972,54.1789814 28.8634044,53.4797516 C29.6916662,51.6551553 30.4157946,49.6401491 31.0153633,47.4709068 L28.1484878,48.1609938 C27.1860539,48.3637267 26.1999897,48.5441988 25.1922978,48.7008199 C24.8078049,49.8695155 24.379656,50.9885217 23.9114557,52.0518758 C23.6927754,52.5455901 23.4668858,53.029764 23.2297818,53.4992298 C23.10362,53.7492671 22.9750552,53.9937391 22.8456893,54.233441 C22.3939101,55.0686211 21.9189012,55.8378137 21.4274711,56.5362484 C19.6459872,59.0704099 17.6402157,60.6807453 15.6244313,61.1804224 C13.607846,60.6807453 11.6028755,59.0704099 9.82099101,56.5362484 C9.09766367,56.8081491 8.38515019,57.048646 7.68305006,57.2581366 L4.88025674,57.9370932 C5.80944801,59.277118 6.81313479,60.4255404 7.87810013,61.3493665 C9.8414172,63.052323 12.0101977,64 14.2887189,64" id="Fill-34" fill="#47B178" mask="url(#mask-2)"/></g></g></g></svg>