<svg height="360" viewBox="0 0 640 360" width="640" xmlns="http://www.w3.org/2000/svg" xmlns:xlink="http://www.w3.org/1999/xlink"><mask id="a" fill="#fff"><path d="m.2318973.3891677h30.783466v63.5869814h-30.783466z" fill="none"/></mask><g fill="none" fill-rule="evenodd"><path d="m0 0h640v360h-640z" fill="#333"/><g transform="translate(160 148)"><g fill="#fffffe"><path d="m119.182798 47.3759006c.233099 0 .432155.0814907.595564.2432795l1.401797 1.495851c-1.028118 1.090385-2.149556 2.0694658-3.363913 2.9388323-1.215157.8697639-2.540857 1.6123229-3.977899 2.2264844-1.437043.614559-3.013864 1.0899876-4.730866 1.4258882-1.717401.3362982-3.60422.5044472-5.659656.5044472-3.434803 0-6.5832396-.5966708-9.4449084-1.7912049-2.8620694-1.1941367-5.3152144-2.8871553-7.3594352-5.0782609-2.0446213-2.1911056-3.6390655-4.8405466-4.7833325-7.9479255-1.145068-3.1069813-1.7174018-6.5621863-1.7174018-10.3652174 0-3.7330683.5895559-7.1417639 1.7694686-10.2260869 1.1799127-3.0839255 2.8388395-5.732969 4.9767804-7.9479255 2.1375405-2.213764 4.6960206-3.93023601 7.6746393-5.14742856 2.9790193-1.21759006 6.2672346-1.82618634 9.8650476-1.82618634 1.798706 0 3.446018.13356522 4.941535.39990063 1.494717.26673292 2.891307.64954037 4.187769 1.14762733 1.296462.4992795 2.517227 1.11900621 3.662295 1.86077018 1.144267.74255896 2.265705 1.60039756 3.364314 2.57431056l-1.086593 1.5650186c-.18704.2782609-.479015.4173913-.875923.4173913-.21027 0-.479415-.1216397-.805834-.3653167-.32762-.2432795-.742151-.5445963-1.244395-.9043479-.502644-.3589565-1.109823-.7528944-1.822336-1.1826087-.712914-.4289192-1.5596-.8228571-2.540457-1.1822111-.981659-.35935407-2.115112-.66106836-3.399559-.90474538-1.285247-.2432795-2.74552-.36531677-4.380816-.36531677-3.013864 0-5.7822132.51637268-8.3054481 1.54792545-2.5232349 1.0323478-4.6960205 2.5047454-6.5183569 4.4175901-1.8223363 1.9132422-3.241756 4.2319503-4.2578587 6.9565217-1.0165033 2.724969-1.5247549 5.7798758-1.5247549 9.165118 0 3.4782609.5022439 6.5856398 1.5071323 9.3217392 1.0040873 2.7364969 2.3946701 5.0492422 4.1701463 6.939031 1.7754763 1.8901864 3.8725648 3.339528 6.2908652 4.3480249 2.4178999 1.0088944 5.0404618 1.5129441 7.8672858 1.5129441 1.775477 0 3.358306-.1156771 4.748889-.3478261 1.389782-.2317516 2.668621-.5795777 3.837319-1.0434783 1.167898-.4635031 2.254491-1.0311553 3.259379-1.7045466 1.004087-.6718012 1.997361-1.4608695 2.978619-2.3648198.116549-.0922236.227492-.1681491.332827-.2261864.105335-.0576397.227892-.0870559.368071-.0870559"/><path d="m132.163841 55.6541615h3.329068v-50.6084969h-3.329068z"/><path d="m161.911178 53.4976398c2.079066 0 3.895395-.3529938 5.449387-1.060969 1.553592-.7067826 2.850054-1.7216397 3.889787-3.0433789 1.039332-1.3217391 1.816729-2.9157764 2.330588-4.7825093.513858-1.8663354.771389-3.9592546.771389-6.2783602 0-2.2952547-.257531-4.3822112-.771389-6.2608696-.513859-1.8782609-1.291256-3.4838261-2.330588-4.8170932-1.039733-1.3336646-2.336195-2.3596521-3.889787-3.0783602-1.553992-.7187081-3.370321-1.0784596-5.449387-1.0784596-2.079866 0-3.895794.3597515-5.449386 1.0784596-1.554393.7187081-2.850855 1.7446956-3.890187 3.0783602-1.039733 1.3332671-1.822337 2.9388323-2.348211 4.8170932-.525474 1.8786584-.78821 3.9656149-.78821 6.2608696 0 2.3191056.262736 4.4120248.78821 6.2783602.525874 1.8667329 1.308478 3.4607702 2.348211 4.7825093 1.039332 1.3217392 2.335794 2.3365963 3.890187 3.0433789 1.553592.7079752 3.36952 1.060969 5.449386 1.060969zm0-33.0088945c2.499605 0 4.736473.4237516 6.711004 1.2700622 1.974131.846708 3.638665 2.0464099 4.994003 3.5995031 1.354937 1.5538882 2.388662 3.4261863 3.101576 5.6176894.712113 2.1915031 1.06857 4.6433789 1.06857 7.3564224 0 2.7130434-.356457 5.1597515-1.06857 7.3393292-.712914 2.1795776-1.746639 4.0463105-3.101576 5.5998012-1.355338 1.5538882-3.019872 2.7480248-4.994003 3.5824099-1.974531.8351802-4.211399 1.2525715-6.711004 1.2525715-2.500405 0-4.737273-.4173913-6.711404-1.2525715-1.974131-.8343851-3.644272-2.0285217-5.011225-3.5824099-1.366952-1.5534907-2.406685-3.4202236-3.119199-5.5998012-.712914-2.1795777-1.06857-4.6262858-1.06857-7.3393292 0-2.7130435.355656-5.1649193 1.06857-7.3564224.712514-2.1915031 1.752247-4.0638012 3.119199-5.6176894 1.366953-1.5530932 3.037094-2.7527951 5.011225-3.5995031 1.974131-.8463106 4.210999-1.2700622 6.711404-1.2700622z"/><path d="m205.750983 25.3583106c-.16381.3255652-.420539.487354-.770988.487354-.25713 0-.589956-.1446957-.998881-.434882-.408924-.2893913-.946013-.6141615-1.611666-.973913-.666054-.3589566-1.483902-.6837267-2.453145-.9739131-.970044-.2897888-2.155564-.434882-3.557361-.434882-1.261217 0-2.412693.1792795-3.451625.5382361-1.040133.358559-1.927671.8383602-2.663815 1.4398012-.736144.600646-1.308478 1.3002733-1.717001 2.098087-.408925.7978136-.613186 1.6365714-.613186 2.5150807 0 1.0868075.279958 1.9891677.841078 2.7062857.560719.7167205 1.296462 1.3288944 2.20763 1.8381118.911168.5084224 1.945294.9480746 3.101176 1.3181615 1.156683.3704845 2.342203.7405714 3.557361 1.1114534 1.214757.370882 2.400277.7827081 3.55696 1.2346833 1.156683.4523726 2.190408 1.0148571 3.101576 1.6870559.911168.6729937 1.647312 1.4954534 2.208031 2.4693664.560719.9743106.841078 2.1565218.841078 3.5478261 0 1.5077764-.275152 2.9102112-.823856 4.2088944-.549104 1.2990808-1.343322 2.4236522-2.382655 3.3737143-1.040133.9512547-2.318973 1.7045466-3.83772 2.2610683-1.518747.5565218-3.247763.8347826-5.186249.8347826-2.453145 0-4.568256-.3883726-6.343332-1.165118-1.775877-.7767453-3.364714-1.791205-4.766511-3.0433789l.806234-1.1826087c.116549-.1856397.245114-.3243726.385694-.4177888.139779-.0922236.338434-.1387329.595564-.1387329.303589 0 .677668.1856398 1.121437.5565217.443369.3712795 1.022111.7707826 1.734624 1.2000994.712514.4293168 1.600052.8292174 2.663415 1.1997019 1.062963.3712795 2.377047.5565217 3.942654.5565217 1.471888 0 2.76835-.2027329 3.890188-.6085963 1.121438-.4054658 2.055435-.9564223 2.803594-1.6520745.747358-.6956522 1.314085-1.5133416 1.699379-2.4522733.385694-.9389317.578742-1.9303354.578742-2.9738136 0-1.1591553-.28076-2.1219379-.841479-2.8871553-.560318-.7652174-1.296462-1.4143603-2.208031-1.9478261-.910767-.5330683-1.944493-.985441-3.101176-1.3567205-1.156682-.3704845-2.34781-.741764-3.574582-1.112646-1.226373-.370882-2.418301-.7771428-3.574984-1.21759-1.155882-.4400497-2.190007-.996969-3.101176-1.6695652-.911168-.6721988-1.646911-1.4894907-2.20763-2.4522733-.561119-.9619876-.841078-2.162087-.841078-3.5999007 0-1.229118.268344-2.4113292.805833-3.547826.537489-1.1357019 1.30247-2.1330684 2.295343-2.9913044.992873-.857441 2.202023-1.5419627 3.62745-2.0519752 1.424627-.5100124 3.025479-.7656149 4.800955-.7656149 2.125926 0 4.012745.3064845 5.659656.9170684 1.647312.6113788 3.159651 1.5459379 4.538619 2.805267z"/><path d="m228.676375 22.9585093c-1.796704 0-3.406367.2782609-4.828991.8347826-1.423025.5565218-2.653402 1.3567205-3.691933 2.4001988-1.038131 1.0434782-1.877608 2.2952546-2.51923 3.7565217-.642023 1.4608696-1.067369 3.0954534-1.277238 4.9041491h22.954629c0-1.8548075-.256729-3.5184099-.769787-4.991205-.513458-1.4723975-1.236385-2.7186087-2.169581-3.739031-.933197-1.0200249-2.053032-1.802733-3.359507-2.3477267-1.306075-.5445963-2.752729-.8176895-4.338362-.8176895zm-.051666-2.469764c1.962916 0 3.779245.3366957 5.449787 1.0088945 1.670141.6729937 3.118798 1.652472 4.345571 2.9392298 1.226372 1.2867577 2.1844 2.8696646 2.873684 4.7475279.688883 1.8786584 1.033725 4.0351801 1.033725 6.4699627 0 .51041-.076097.8582361-.227892 1.0434783-.151394.1856398-.390901.2782609-.71732.2782609h-25.16306v.6606708c0 2.5973664.303189 4.8814907.910768 6.8519751.607579 1.9712795 1.472287 3.6233541 2.593725 4.9566212 1.121438 1.3336646 2.475974 2.3365962 4.064811 3.008795 1.588837.6729938 3.364714 1.0084969 5.32723 1.0084969 1.752247 0 3.270593-.191205 4.555841-.5736149 1.284447-.3828075 2.365433-.8113292 3.241756-1.2867578.875923-.4754286 1.570814-.9047453 2.085073-1.2875528.513458-.3820124.887538-.5736149 1.121438-.5736149.303189 0 .536688.1164721.700899.3478261l.911168 1.1130435c-.560719.6956522-1.302871 1.3451925-2.225654 1.9478261-.922783.6034285-1.950901 1.1190062-3.083953 1.5479254-1.133454.4293168-2.34781.7711802-3.644273 1.0259876-1.296862.2548075-2.599733.3828075-3.90781.3828075-2.382654 0-4.55584-.4118261-6.518357-1.2350808-1.962516-.8228571-3.646675-2.022559-5.052077-3.5999006-1.405401-1.5765466-2.491994-3.5072795-3.258978-5.7914037-.767784-2.2837267-1.151075-4.8981864-1.151075-7.8433789 0-2.4808944.356056-4.7705839 1.06897-6.8694659.712514-2.0984844 1.740231-3.9067826 3.083954-5.4260869 1.343322-1.5185093 2.990233-2.7070808 4.941135-3.5653168 1.950901-.8578385 4.164539-1.2871553 6.640914-1.2871553z"/><path d="m248.499389 52.9760994c0-.4404472.082105-.857441.245515-1.2525714.163009-.3939379.390901-.7354038.683276-1.0259876.291974-.2893913.630808-.5215404 1.016503-.6956522.385294-.1737143.81144-.2607702 1.278839-.2607702.443769 0 .864309.0870559 1.262018.2607702.396909.1741118.74095.4062609 1.033726.6956522.291574.2905838.525473.6320497.700898 1.0259876.175025.3951304.262737.8121242.262737 1.2525714 0 .4639006-.087712.8868571-.262737 1.2692671-.175425.3828074-.409324.7191055-.700898 1.0088944-.292776.2901863-.636817.5155776-1.033726.6781615-.397709.1621863-.818249.243677-1.262018.243677-.910767 0-1.676549-.307677-2.295342-.9218385-.619194-.6141615-.928791-1.3742112-.928791-2.2781615"/><path d="m266.121982 55.6541615h3.329068v-34.6084969h-3.329068zm4.800955-46.53913044c0 .4173913-.087712.80616149-.262737 1.16551554-.175425.3597515-.402916.6781615-.683276.9564223-.28076.2782609-.607979.498882-.981658.6606709-.373679.1625838-.770588.2432795-1.191127.2432795-.42054 0-.818249-.0806957-1.191928-.2432795-.37368-.1617889-.700899-.38241-.980858-.6606709-.280359-.2782608-.503045-.5966708-.666054-.9564223-.163409-.35935405-.245114-.74812424-.245114-1.16551554 0-.41739131.081705-.81729193.245114-1.20009938.163009-.38240994.385695-.71314286.666054-.99100621.279959-.27865839.607178-.49848448.980858-.66106833.373679-.16178882.771388-.2432795 1.191928-.2432795.420539 0 .817448.08149068 1.191127.2432795.373679.16258385.700898.38240994.981658.66106833.28036.27786335.507851.60859627.683276.99100621.175025.38280745.262737.78270807.262737 1.20009938z"/><path d="m295.86932 53.4976398c2.078665 0 3.895394-.3529938 5.449386-1.060969 1.553191-.7067826 2.850054-1.7216397 3.889787-3.0433789 1.039332-1.3217391 1.816329-2.9157764 2.330588-4.7825093.513859-1.8663354.770988-3.9592546.770988-6.2783602 0-2.2952547-.257129-4.3822112-.770988-6.2608696-.514259-1.8782609-1.291256-3.4838261-2.330588-4.8170932-1.039733-1.3336646-2.336596-2.3596521-3.889787-3.0783602-1.553992-.7187081-3.370721-1.0784596-5.449386-1.0784596-2.079867 0-3.896195.3597515-5.449387 1.0784596-1.553992.7187081-2.851255 1.7446956-3.890187 3.0783602-1.039733 1.3332671-1.822337 2.9388323-2.348211 4.8170932-.525473 1.8786584-.78821 3.9656149-.78821 6.2608696 0 2.3191056.262737 4.4120248.78821 6.2783602.525874 1.8667329 1.308478 3.4607702 2.348211 4.7825093 1.038932 1.3217392 2.336195 2.3365963 3.890187 3.0433789 1.553192.7079752 3.36952 1.060969 5.449387 1.060969zm0-33.0088945c2.499604 0 4.736472.4237516 6.711003 1.2700622 1.974131.846708 3.638665 2.0464099 4.994003 3.5995031 1.354537 1.5538882 2.388262 3.4261863 3.101576 5.6176894.712113 2.1915031 1.06857 4.6433789 1.06857 7.3564224 0 2.7130434-.356457 5.1597515-1.06857 7.3393292-.713314 2.1795776-1.747039 4.0463105-3.101576 5.5998012-1.355338 1.5538882-3.019872 2.7480248-4.994003 3.5824099-1.974531.8351802-4.211399 1.2525715-6.711003 1.2525715-2.500406 0-4.737274-.4173913-6.711405-1.2525715-1.974531-.8343851-3.644272-2.0285217-5.011224-3.5824099-1.366953-1.5534907-2.406686-3.4202236-3.119199-5.5998012-.712914-2.1795777-1.068971-4.6262858-1.068971-7.3393292 0-2.7130435.356057-5.1649193 1.068971-7.3564224.712513-2.1915031 1.752246-4.0638012 3.119199-5.6176894 1.366952-1.5530932 3.036693-2.7527951 5.011224-3.5995031 1.974131-.8463106 4.210999-1.2700622 6.711405-1.2700622z"/></g><path d="m64.0901669 33.5200994v-2.6510311c0-2.2622608-.9540231-4.4144099-2.6702234-6.3626335-.9311938-1.0565963-2.0878767-2.0535652-3.4368061-2.9754037-.7625777-.5195528-1.5860334-1.0156522-2.4659615-1.4863106-.6452272-.3442485-1.3208935-.6749814-2.0265982-.9902112-1.8375559-.8224596-3.8677587-1.5411677-6.0541618-2.1366459.2559281.9218385.4874249 1.8715031.6960924 2.8462111.2042619.9552298.3856945 1.9335156.5430963 2.9328696 1.1779102.3824099 2.3057561.807354 3.3767292 1.2720497.4978382.2170435.9852631.4416397 1.457869.6761739.252724.1252174.4986393.2524224.7405494.3816149.8410784.448795 1.6160719.9198509 2.3193736 1.408 2.5536739 1.7677516 4.1773556 3.7585093 4.6804005 5.7596025-.5030449 2.0010932-2.1267266 3.9910559-4.6804005 5.7596025.2739512.717913.5174634 1.4254907.727733 2.1223354.2875687.9496646.5158614 1.8786584.6852786 2.7814161 1.3489294-.9218385 2.5056123-1.9188074 3.4368061-2.9754037 1.7162003-1.9486211 2.6702234-4.1003727 2.6702234-6.362236" fill="#2f577e"/><path d="m25.0148703 49.035528c-1.0962053-.8677764-2.184801-1.7923976-3.2573761-2.7706833.2194814.8323975.458588 1.6457143.7185212 2.4359752.832267.128795 1.679353.2393043 2.5388549.3347081" fill="#2f577e"/><path d="m30.7714506 46.7581615c.4237432.3037019.8482875.5994534 1.2740334.8864596.8102387.5449938 1.6232811 1.0581864 2.4371245 1.5383851.1033324.0608199.207466.1196522.3103979.1792795 1.4570681-.0612174 2.8865007-.1709317 4.2830912-.3267577.8595019-.0954038 1.7065879-.2059131 2.5372528-.3347081 1.007692-.1566211 1.9937561-.3370932 2.95619-.5398261.9820591-.2067081 1.9380848-.4376646 2.8668755-.690087 2.1864031-.5958757 4.2166059-1.3145838 6.0541618-2.1366459-.1497921-.8395528-.3624647-1.715677-.6376175-2.6243975-.0789011-.2607702-.1618074-.522733-.2511219-.7886709-.1674147-.4976894-.3512504-.998559-.5495045-1.5018136-1.0709731.4650931-2.198819.8904348-3.3767292 1.2720497-.7958203.2579875-1.6148703.4957018-2.4539461.7135403-.1165494.0306087-.2330988.0620125-.3496482.0910311-.9183774.231354-1.8575815.4400497-2.8200154.6229068-.505448.0965963-1.0165032.1848448-1.5319641.2679255-1.4871065.2381118-3.0142644.4209689-4.577068.5430062-1.6024545.127205-3.239353.192-4.8974788.192-1.6589269 0-3.2950244-.064795-4.8974789-.192 1.1907266 1.0096895 2.4026804 1.9537888 3.6234455 2.828323" fill="#2f577e"/><path d="m11.2372067 21.6785093c.0789011.2611677.1626084.523528.251923.7890683.1666136.497292.3512503.998559.5491039 1.5014162 1.0713736-.4646957 2.1984185-.8896398 3.3755276-1.2720497.7966213-.2575901 1.6156714-.4949068 2.4555482-.7131429.1157484-.0310062.2322978-.0616149.3488472-.091031.9183774-.2313541 1.8583826-.4400497 2.8200154-.6229068.505448-.0961988 1.0165032-.1852423 1.5319641-.2671305 1.4871065-.2393043 3.0150654-.4213664 4.577869-.5441987 1.6024545-.12641 3.238552-.191205 4.8974789-.191205 1.6581258 0 3.2950243.064795 4.8974788.191205-1.1915276-1.0088944-2.4026804-1.9529938-3.6234455-2.828323-.4237432-.3029069-.848688-.5994534-1.2740333-.8856646-.8110398-.5457888-1.6240822-1.0581864-2.4379256-1.5383851-.103733-.0616149-.2066649-.1200497-.3095969-.179677-1.4582696.0608198-2.8881027.1713292-4.2830912.3263602-.8595019.0954037-1.7065879.2063106-2.5388549.3351056-1.0068909.1570186-1.9925546.3370932-2.9545879.5394286-.9820591.2071056-1.9396868.4380621-2.8684776.6904845-2.184801.5954782-4.2150038 1.3141863-6.0533607 2.1366459.1497921.8395528.3616637 1.7152795.6376175 2.624" fill="#2f577e"/><path d="m39.0760976 15.3528447c1.0954043.8681739 2.184 1.7931926 3.2573761 2.7714783-.2202824-.8331926-.459389-1.6461118-.7201233-2.4363727-.8306649-.128795-1.6777509-.2397019-2.5372528-.3351056" fill="#2f577e"/><path d="m2.84044159 32.1943851c.50304493-2.0010932 2.12632606-3.9918509 4.67959949-5.7596025-.27475225-.717913-.51666239-1.4254907-.72693197-2.1227329-.28917073-.9496646-.51666238-1.8786584-.68527856-2.7810186-1.34973042.9218385-2.50641335 1.9188074-3.43760719 2.9754037-1.71539923 1.9482236-2.67022336 4.1003727-2.67022336 6.3626335v2.6510311c0 2.2618633.95482413 4.4136149 2.67022336 6.362236.93119384 1.0565963 2.08787677 2.0535652 3.43760719 2.9754037.76177664.5195528 1.58563286 1.0156522 2.46596149 1.4855156.64442619.345441 1.32089345.6753788 2.02579716.9910062 1.8383569.8220621 3.8685597 1.5407702 6.0533607 2.1366459-.254326-.9218385-.4866238-1.8719006-.6952914-2.8462111-.2034608-.9548323-.3856944-1.9331181-.5438973-2.9332671-1.1771091-.3816149-2.304154-.8069566-3.3755276-1.2720497-.4974377-.216646-.9856636-.4408447-1.4582695-.6757764-.252724-.1256149-.4978383-.2524224-.73974844-.3812174-.84187933-.4495901-1.6164724-.920646-2.32017458-1.4083975-2.55327343-1.7685466-4.17655456-3.7585093-4.67959949-5.7596025" fill="#2f577e"/><path d="m39.0760976 49.035528c-1.3965905.155826-2.8260231.2655403-4.2830912.3267577.7497613.4344845 1.4979204.8431304 2.2460796 1.2191801.6804724-.4933167 1.3605443-1.0092919 2.0370116-1.5459378" fill="#f4b563"/><path d="m55.6489448 10.6414907-1.8884211-1.87428573c-1.6120667-1.59960249-3.8200975-2.45147826-6.4214326-2.62479503-1.4110089-.09421118-2.9389679.01351553-4.5502336.30886956-.9091656.16735404-1.8459666.39354038-2.8019923.67895652-.7021001.2098882-1.4154146.4503851-2.1383415.72268323-1.8860179.70797516-3.8333145 1.62385094-5.8030397 2.73808695.8358716.4722485 1.6769499.9810683 2.5192297 1.523677.8242568.5314783 1.6505161 1.0967454 2.4743723 1.6922236 1.1050167-.5565217 2.2044262-1.0470559 3.2934223-1.4696149.5062491-.1967702 1.0112966-.3792298 1.5123389-.5453913.2683441-.0886459.5322825-.1713292.7958203-.2496397.9151733-.2734907 1.797104-.4841739 2.6437895-.6332423 3.0643286-.5414161 5.6304185-.2726956 7.4111014.7890684" fill="#f4b563"/><path d="m52.6955584 11.698087c1.0709731 1.768149 1.3405186 4.3146335.7950193 7.3564223.7057047.3152298 1.381371.6459627 2.0265982.9902112.8799281.4706584 1.7033838.9667578 2.4659615 1.4863106.2963799-1.599205.4057201-3.1149317.3103979-4.516174-.1742234-2.5818633-1.0337253-4.7729689-2.6445905-6.3733664-.3180077-.3148323-.6596457-.6002485-1.0229114-.85903107" fill="#f4b563"/><path d="m41.5200308 43.3868323c.5154609-.0830807 1.0265161-.1713292 1.5319641-.2679255.9624339-.1828571 1.901638-.3915528 2.8200154-.6229068.1165494-.0290186.2330988-.0604224.3496482-.0910311.9856637-1.0645465 1.9168575-2.1449937 2.7919795-3.2325962.5402927-.6710062 1.0597587-1.3459876 1.5575969-2.0221615.5999692-.8172919 1.1686983-1.6373665 1.7049859-2.4554534.5463004-.8355777 1.0593581-1.6691677 1.5359692-2.5003727 1.1218382-1.9557764 2.0446213-3.8880994 2.7579358-5.7596025-.7033017-.4881491-1.4782952-.959205-2.3193736-1.408-.2419101-.1291925-.4878254-.2563975-.7405494-.3816149-.4726059-.2345342-.9600308-.4591304-1.457869-.6761739-.4265469 1.0812422-.921181 2.1728199-1.4810989 3.2695652-.3796868.741764-.7910141 1.4847205-1.2283748 2.2288696-.0604776.102559-.1197536.2055155-.1810321.307677-.4838203.8077515-1.0004827 1.6147081-1.5495867 2.4192795-.2907728.422559-.5871527.8439255-.8927445 1.2648944-.8823312 1.2116273-1.8331502 2.4137143-2.8504544 3.596323-1.0429371 1.2144099-2.154362 2.4089441-3.3270655 3.5728695-1.1715019 1.1639255-2.3750449 2.2662361-3.5990141 3.3013665 1.5628036-.1220373 3.0899615-.3048944 4.577068-.5430062" fill="#f4b563"/><path d="m25.0148703 15.3528447c1.3949885-.155031 2.8248216-.2655404 4.2830912-.3263602-.7505623-.434882-1.4987214-.8427329-2.2464801-1.2195777-.6808729.4937143-1.3601438 1.0096895-2.0366111 1.5459379" fill="#f4b563"/><path d="m11.3938074 52.6910807c-1.0697715-1.7689441-1.3405186-4.3162236-.7942182-7.3568198-.70490371-.3156274-1.38137097-.6455652-2.02579716-.9910062-.88032863-.4698634-1.70418485-.9659628-2.46596149-1.4855156-.29838254 1.5996025-.40572015 3.1153292-.31119897 4.5161739.17502439 2.5822609 1.03252375 4.7733665 2.64499101 6.373764l1.88882161 1.8734907c1.6112657 1.5996025 3.8192965 2.4514783 6.4206315 2.6251925 1.4118101.0942112 2.9389679-.013118 4.5502337-.309267.9095661-.1669566 1.8459666-.3931429 2.8027933-.6789566.7021001-.2094906 1.4146136-.4499875 2.1379409-.7218882 1.8856175-.7087701 3.832914-1.6246459 5.8034404-2.7380869-.8366727-.4730435-1.677751-.9822609-2.5196303-1.5240745-.8238563-.5318758-1.6501156-1.0967454-2.4743723-1.6926212-1.1046162.5573168-2.2044262 1.047851-3.2938229 1.47041-.50705.1959751-1.0120975.3792298-1.5123389.5449938-.268344.0890434-.5322824.1713292-.7950192.2500372-.9159743.2730932-1.797905.4833789-2.6445905.6328448-3.0643286.5414161-5.6296175.2726956-7.4119025-.7886709" fill="#f4b563"/><path d="m9.84021566 39.3623851c.24191014.128795.48702444.2556025.73974844.3812174.4726059.2349317.9608318.4591304 1.4582695.6757764.4253453-1.0808447.9199795-2.1720249 1.4814994-3.2691677.3788857-.741764.7902131-1.4847205 1.2275738-2.2288696.0604775-.1021615.120154-.205118.1810321-.307677.4838203-.807354 1.0004827-1.6151056 1.5507882-2.4192795.2887702-.422559.5867522-.8439255.892344-1.2644969.8815302-1.2116273 1.8323492-2.4137143 2.8496534-3.596323 1.0433376-1.2148074 2.153561-2.4089441 3.3278665-3.572472 1.1707009-1.1647205 2.3750449-2.2670311 3.5990141-3.302559-1.5628036.1228323-3.0907625.3048944-4.577869.5441987-.5154609.0818882-1.0265161.1709317-1.5319641.2671305-.9616328.1828571-1.901638.3915527-2.8200154.6229068-.1165494.0294161-.2330988.0600248-.3488472.091031-.9864647 1.0645466-1.9176586 2.1445963-2.7927805 3.2325963-.5402927.6710062-1.0601592 1.3459876-1.5575969 2.0221615-.5999692.8172919-1.1686984 1.636969-1.7049859 2.4550559-.5463004.8363727-1.0593582 1.6695652-1.5351682 2.5007702-1.12263926 1.9553789-2.04542232 3.8880994-2.75873682 5.7596025.70370218.4877515 1.47829525.9588074 2.32017458 1.4083975" fill="#f4b563"/><path d="m15.0765289 39.1723727c-.1557998-1.3845466-.2679435-2.8044721-.3292221-4.2510311-.4373607.7441491-.8486881 1.4871056-1.2275738 2.2288696.4966367.6761739 1.0165032 1.3511553 1.5567959 2.0221615" fill="#5cafcd"/><path d="m11.3938074 11.698087c1.782285-1.061764 4.3483749-1.3304845 7.4119025-.7886709.3176072-.6996273.6512349-1.37063349.9984801-2.01103101.4738074-.87373913.9728472-1.69103105 1.4971194-2.44710559-1.6112658-.29535403-3.1384236-.40308074-4.5502337-.30886956-2.601335.17331677-4.8093658 1.02519254-6.4206315 2.62479503-.3180077.31602484-.60517591.6555031-.8663107 1.01525466.26113479-.35975156.548303-.69922982.8663107-1.01525466l-1.88882161 1.87428573c-1.61246726 1.6003975-2.46996662 3.7915031-2.64499101 6.3733664-.09452118 1.4012423.01281643 2.916969.31119897 4.516174.16861618.9023602.39610783 1.831354.68527856 2.7810186.21026958.6972422.45217972 1.4048199.72693197 2.1227329.7133145 1.8715031 1.63609756 3.8038261 2.75873682 5.7596025.47581-.831205.9888678-1.6643975 1.5351682-2.5007702.5362875-.8180869 1.1050167-1.637764 1.7049859-2.4550559-.5607189-1.0967453-1.0553531-2.188323-1.4806984-3.2695652-.1978536-.5028572-.3824903-1.0041242-.5491039-1.5014162-.0893146-.2655403-.1730219-.5279006-.251923-.7890683-.2759538-.9087205-.4878254-1.7844472-.6376175-2.624-.5463004-3.0413913-.2755533-5.5882733.7942182-7.3564223" fill="#5cafcd"/><path d="m49.013638 25.2163975c.1566008 1.3849441.2671425 2.8040745.3292221 4.2510311.4373607-.7441491.848688-1.4871056 1.2283748-2.2288696-.4978382-.6761739-1.0173042-1.3511553-1.5575969-2.0221615" fill="#5cafcd"/><path d="m43.3215404 22.7907578c-.0837073-.5123976-.1726213-1.0192298-.2695455-1.5208944-.1846367-.9548323-.3941053-1.8878013-.6276047-2.7993044-.029638-.115677-.060878-.230559-.0909165-.346236-1.0733761-.9782857-2.1619718-1.9033044-3.2573761-2.7714783-.6764673-.5362484-1.3565392-1.0522236-2.0370116-1.5459379-.8238562-.5954782-1.6501155-1.1607453-2.4743723-1.6922236-.8422798-.5426087-1.6833581-1.0514285-2.5192297-1.523677-1.9705264-1.11423601-3.9178229-2.03011179-5.8034404-2.73808695-.4918305.69843479-.9668395 1.46722982-1.4186187 2.30240995-.1293658.2397019-.2579307.4841739-.3848934.7342112-.2359025.4694658-.4621926.9536397-.680873 1.448149 1.0893967.4221615 2.1892067.9126957 3.2938229 1.4692174.7477587.3768448 1.4959178.7846957 2.2464801 1.2195777.102932.0596273.2058639.1180621.3095969.179677.8138434.4801987 1.6268858.9925963 2.4379256 1.5383851.4253453.2862112.8502901.5827577 1.2740333.8856646 1.2207651.8753292 2.4319179 1.8194286 3.6234455 2.828323 1.2239692 1.0355279 2.4275122 2.1378385 3.5990141 3.302559 1.1727035 1.1635279 2.2841284 2.3576646 3.3270655 3.572472-.1233582-1.5503105-.3071939-3.0680248-.547502-4.5428074" fill="#5cafcd"/><path d="m20.7694275 41.5980124c.0825057.5127951.1718203 1.0196274.2687445 1.5208944.1838357.9548323.3941053 1.8881988.6272041 2.7989069.0300385.116472.0612786.231354.0921181.347031 1.0725751.9782857 2.1611708 1.9029069 3.2573761 2.7706833.6764673.5366459 1.3557382 1.0526211 2.0366111 1.5459378.8242567.5958758 1.650516 1.1607454 2.4743723 1.6926212.8418793.5418136 1.6829576 1.051031 2.5196303 1.5240745 1.9697252 1.113441 3.9170218 2.0293168 5.8030397 2.7380869.4914301-.6984347.9664391-1.4676273 1.4182183-2.3028074.1293658-.2397019.2579307-.4841739.3840924-.7342112.237104-.4694658.4629936-.9536397.6816739-1.447354-1.0889961-.422559-2.1884056-.9130932-3.2934223-1.47041-.7481592-.3760497-1.4963183-.7846956-2.2460796-1.2191801-.1029319-.0596273-.2070655-.1184596-.3103979-.1792795-.8138434-.4801987-1.6268858-.9933913-2.4371245-1.5383851-.4257459-.2870062-.8502902-.5827577-1.2740334-.8864596-1.2207651-.8745342-2.4327189-1.8186335-3.6234455-2.828323-1.2239692-1.0351304-2.4283132-2.137441-3.5990141-3.3021615-1.1743055-1.1631304-2.2845289-2.3576646-3.3278665-3.5720745.1233582 1.549913.3079949 3.0668323.548303 4.5424099" fill="#5cafcd"/><path d="m53.7605237 55.6211677 1.8884211-1.8734907c1.6108652-1.6003975 2.4703671-3.7915031 2.6445905-6.373764.0953222-1.4008447-.014018-2.9165714-.3103979-4.5161739-.1694172-.9027577-.3977099-1.8317515-.6852786-2.7814161-.2102696-.6968447-.4537818-1.4044224-.727733-2.1223354-.7133145-1.8715031-1.6360976-3.8042236-2.7579358-5.7596025-.4766111.831205-.9896688 1.664795-1.5359692 2.5003727-.5362876.8180869-1.1050167 1.6381615-1.7049859 2.4554534.5599179 1.0971428 1.054552 2.188323 1.4810989 3.2691677.1982541.5032546.3820898 1.0041242.5495045 1.5018136.0893145.2659379.1722208.5279007.2511219.7886709.2751528.9087205.4878254 1.7848447.6376175 2.6243975.5454993 3.0405962.2759538 5.5878757-.7950193 7.3568198-1.7806829 1.0613665-4.3467728 1.330087-7.4111014.7886709-.3176072.6992298-.6512349 1.3706335-.9984801 2.011031-.4738075.8733416-.9736483 1.690236-1.4971194 2.4463106 1.6112657.296149 3.1392247.4034782 4.5502336.309267 2.6013351-.1737142 4.8093659-1.02559 6.4214326-2.6251925" fill="#5cafcd"/><path d="m17.3714711 30.9298882c-.3055918.4205714-.6035738.8419379-.892344 1.2644969-.5503055.8041739-1.0669679 1.6119255-1.5507882 2.4192795-.0608781.102559-.1205546.2055155-.1810321.307677.0612786 1.446559.1734223 2.8664845.3292221 4.2510311.0965237.8530683.2078665 1.6946087.3372323 2.5190559.1582029 1.000149.3404365 1.9784348.5438973 2.9332671.2086676.9743105.4409654 1.9243726.6952914 2.8462111.6007703 2.1692423 1.3252991 4.1842485 2.15276 6.0088448.8466855-.1494659 1.7286162-.3597516 2.6445905-.6328448.2627368-.078708.5266752-.1609938.7950192-.2500372.5002414-.165764 1.0052889-.3490187 1.5123389-.5449938-.4682002-1.0633541-.8971502-2.1823603-1.2816431-3.3510559-.2599332-.7902609-.4990398-1.6035777-.7185212-2.4359752-.0308395-.115677-.0620796-.230559-.0921181-.347031-.2330988-.9107081-.4433684-1.8440746-.6272041-2.7989069-.0969242-.501267-.1862388-1.0080993-.2687445-1.5208944-.2403081-1.4755776-.4249448-2.9924969-.548303-4.5424099-.1277638-1.5908572-.1930475-3.2147081-.1930475-4.8612174 0-1.6461118.0652837-3.2703603.1930475-4.8608199-1.0173042 1.1826087-1.9681232 2.3846957-2.8496534 3.596323" fill="#47b178"/><path d="m49.013638 39.1723727c-.875122 1.0876025-1.8063158 2.1680497-2.7919795 3.2325962.8390758-.2178385 1.6581258-.4555528 2.4539461-.7135403.1301669-.8244472.2419102-1.6659876.3380334-2.5190559" fill="#47b178"/><path d="m15.0765289 25.2163975c.8751219-1.088 1.8063158-2.1680497 2.7927805-3.2325963-.8398768.2182361-1.6589269.4555528-2.4555482.7131429-.1293658.8256398-.2407086 1.6663851-.3372323 2.5194534" fill="#47b178"/><path d="m46.7194968 33.4592795c.3055918-.4209689.6019717-.8423354.8927445-1.2648944.549104-.8045714 1.0657664-1.611528 1.5495867-2.4192795.0612785-.1021615.1205545-.205118.1810321-.307677-.0620796-1.4469566-.1726213-2.866087-.3292221-4.2510311-.0961232-.8530683-.2078665-1.6938136-.3380334-2.5194534-.1574018-.999354-.3388344-1.9776398-.5430963-2.9328696-.2086675-.974708-.4401643-1.9243726-.6960924-2.8462111-.5995687-2.1692423-1.323697-4.1842485-2.1519589-6.0088448-.8466855.1490684-1.7286162.3597516-2.6437895.6332423-.2635378.0783105-.5274762.1609938-.7958203.2496397-.5010423.1661615-1.0060898.3486211-1.5123389.5453913.4682003 1.0633541.8963492 2.1815652 1.2808421 3.3506584.2607343.7902609.4998409 1.6031801.7201233 2.4363727.0300385.115677.0612785.230559.0909165.346236.2334994.9115031.442968 1.8444721.6276047 2.7993044.0969242.5016646.1862387 1.0084968.2695455 1.5208944.2403081 1.4747826.4241438 2.9924969.547502 4.5428074.1269627 1.5904596.193448 3.2147081.193448 4.8608199 0 1.6465093-.0664853 3.2703602-.193448 4.8612174 1.0173042-1.1826087 1.9681232-2.3846957 2.8504544-3.596323" fill="#47b178"/><g fill="#47b178" transform="translate(16.421053)"><path d="m26.3678049 6.4512795c-.9287908-1.33962733-1.9336791-2.48804969-2.9978434-3.41187577-1.9629166-1.70295653-4.1312965-2.65023603-6.4102182-2.65023603h-2.6710244c-2.2785212 0-4.4473017.9472795-6.41061877 2.65023603-1.06496534.92382608-2.06865212 2.07224844-2.99784339 3.41187577-.52427214.75607454-1.02331194 1.57336646-1.49711938 2.44710559-.34724519.64039752-.68087292 1.31140371-.99848011 2.01103101-.82746084 1.8241988-1.55198973 3.839205-2.15275995 6.0084473.92879076-.2524224 1.88641849-.4833789 2.86847754-.6904845.96203338-.2023354 1.94769705-.38241 2.95458793-.5394286.38449294-1.1690932.81344288-2.2873043 1.28164314-3.3502609.21868035-.4945093.44497047-.9786832.68087291-1.448149.12696277-.2500373.2555276-.4945093.38489345-.7342112.45177921-.83518013.92678819-1.60397516 1.41861874-2.30240995 1.78188449-2.53416149 3.78685499-4.14529192 5.80344029-4.64496894 2.0157844.49967702 4.0215559 2.11080745 5.8030398 4.64496894.7229268-.27229813 1.4362414-.51279503 2.1383415-.72268323" mask="url(#a)"/><path d="m14.2887189 64h2.6710244c2.2789217 0 4.4473016-.947677 6.4102182-2.6506335 1.0641643-.9238261 2.0690526-2.0722485 2.9978434-3.4122733.5234711-.7560746 1.0233119-1.572969 1.4971194-2.4463106.3472451-.6403975.6808729-1.3118012.9984801-2.011031.8282618-1.8245963 1.5523902-3.8396025 2.1519589-6.0088448l-2.8668755.690087c-.9624339.2027329-1.9484981.383205-2.95619.5398261-.3844929 1.1686956-.8126418 2.2877018-1.2808421 3.3510559-.2186803.4937143-.4445699.9778882-.6816739 1.447354-.1261618.2500373-.2547266.4945093-.3840925.7342112-.4517792.8351801-.9267881 1.6043727-1.4182182 2.3028074-1.7814839 2.5341615-3.7872554 4.1444969-5.8030398 4.644174-2.0165853-.4996771-4.0215558-2.1100125-5.80344029-4.644174-.72332734.2719007-1.43584082.5123976-2.13794095.7218882l-2.80279332.6789566c.92919127 1.3400248 1.93287805 2.4884472 2.99784339 3.4122733 1.96331707 1.7029565 4.13209757 2.6506335 6.41061877 2.6506335" mask="url(#a)"/></g></g></g></svg>