<svg xmlns="http://www.w3.org/2000/svg" xmlns:xlink="http://www.w3.org/1999/xlink" width="640" height="360" viewBox="0 0 640 360"><defs><linearGradient id="a" x1="50%" x2="50%" y1="100%" y2="8.717%"><stop offset="0%" stop-color="#FFF"/><stop offset="100%" stop-color="#F6FAFF"/></linearGradient><path id="b" d="M0 0h640v360H0z"/></defs><g fill="none" fill-rule="evenodd"><path d="M0 0h640v360H0z"/><use fill="url(#a)" xlink:href="#b"/><g fill-rule="nonzero"><path fill="#2B6190" d="M146.766 161.867c11.16 0 21.523 2.4 29.228 6.4C182.37 171.733 186.09 176 186.09 180c0 4-3.72 8.267-10.096 11.733-7.705 4-18.068 6.4-29.228 6.4s-21.523-2.4-29.23-6.4C111.16 188.267 107.44 184 107.44 180c0-4 3.72-8.267 10.097-11.733 7.706-4.267 18.07-6.4 29.23-6.4zm0-6.134c-24.977 0-45.437 10.934-45.437 24.267s20.193 24.267 45.436 24.267 45.17-10.934 45.17-24.267-20.193-24.267-45.17-24.267z"/><path fill="#47BB7F" d="M146.766 140.533c3.985 0 8.237 3.734 11.69 10.134 3.987 7.733 6.378 18.133 6.378 29.333s-2.39 21.6-6.377 29.333c-3.454 6.4-7.706 10.134-11.69 10.134-3.987 0-8.238-3.734-11.693-10.134-3.985-7.733-6.377-18.133-6.377-29.333s2.392-21.6 6.377-29.333c3.19-6.4 7.44-10.134 11.692-10.134zm0-6.133c-13.286 0-24.18 20.267-24.18 45.6 0 25.333 10.894 45.6 24.18 45.6 13.285 0 24.18-20.267 24.18-45.6 0-25.333-10.895-45.6-24.18-45.6z"/><path fill="#FCBA63" d="M166.96 149.6c3.19 0 5.846.8 7.44 2.4 2.923 2.933 3.19 8.533 1.063 15.467-2.657 8.266-8.237 17.333-16.21 25.333-10.627 10.667-23.647 17.6-33.213 17.6-3.19 0-5.846-.8-7.44-2.4-2.923-2.933-3.19-8.533-1.063-15.467 2.657-8.266 8.237-17.333 16.21-25.333 10.627-10.667 23.647-17.6 33.213-17.6zm0-6.133c-10.894 0-25.243 6.933-37.466 19.2-17.803 17.866-24.445 40-14.88 49.333 2.923 2.933 6.91 4.267 11.692 4.267 10.894 0 25.243-6.934 37.465-19.2 17.804-17.867 24.447-40 14.88-49.334-2.92-2.933-6.907-4.266-11.69-4.266z"/><path fill="#57B7DF" d="M126.306 149.6c9.565 0 22.585 6.933 33.214 17.6 7.97 8 13.55 16.8 16.21 25.333 2.124 6.934 1.593 12.534-1.064 15.467-1.595 1.6-4.252 2.4-7.44 2.4-9.566 0-22.586-6.933-33.215-17.6-7.97-8-13.55-16.8-16.207-25.333-2.126-6.934-1.594-12.534 1.063-15.467 1.594-1.6 4.25-2.4 7.44-2.4zm0-6.133c-4.783 0-8.77 1.333-11.692 4.266-9.565 9.6-2.657 31.467 14.88 49.334 12.223 12.266 26.572 19.2 37.466 19.2 4.783 0 8.77-1.334 11.69-4.267 9.567-9.6 2.66-31.467-14.88-49.333-12.22-12.267-26.57-19.2-37.464-19.2z"/></g><path d="M156.597 203.733c-1.328 1.067-2.657 1.867-3.72 2.934 2.126 1.066 3.986 1.866 6.112 2.4 1.06-1.867 1.86-3.734 2.656-5.867-1.86 0-3.455.267-5.05.533zm8.237 6.667h2.126c3.19 0 5.846-.8 7.44-2.4 2.126-2.133 2.923-5.6 2.39-9.867-2.656 1.334-5.58 2.4-8.767 3.2-.797 3.2-2.126 6.134-3.19 9.067zm5.58-20.533c-.265 1.6-.53 3.2-.797 4.8 2.126-.8 3.986-1.6 5.846-2.667-.532-1.867-1.33-4-2.392-6.133-.796 1.333-1.86 2.666-2.656 4zm-33.48-33.6c1.33-1.067 2.657-1.867 3.72-2.934-2.125-1.066-3.985-1.866-6.11-2.4-1.064 1.867-1.86 3.734-2.658 5.867 1.86 0 3.454-.267 5.048-.533zm-8.237-6.667h-2.126c-3.187 0-5.844.8-7.44 2.4-2.124 2.133-2.92 5.6-2.39 9.867 2.657-1.334 5.58-2.4 8.77-3.2.796-3.2 1.86-6.134 3.187-9.067zm52.08 38.933c3.454-2.666 5.314-5.6 5.314-8.533s-1.86-5.867-5.313-8.533c-1.063 2.933-2.39 5.6-3.986 8.533 1.596 2.933 2.924 5.867 3.987 8.533zm-57.66 1.334c-1.063-1.334-1.86-2.667-2.923-3.734-1.063 2.134-1.86 4-2.39 6.134 1.86 1.066 3.72 1.866 5.845 2.666-.267-1.866-.267-3.466-.533-5.066zm32.152-44c-2.66-3.467-5.58-5.334-8.504-5.334-2.923 0-5.846 1.867-8.503 5.334 2.923 1.066 5.58 2.4 8.503 4 2.923-1.867 5.58-3.2 8.503-4zm-17.273 68.266c2.657 3.467 5.58 5.334 8.503 5.334s5.846-1.867 8.503-5.334c-2.923-1.066-5.58-2.4-8.503-4-2.657 1.867-5.58 3.2-8.503 4zm-21.523-16c-.53 4.267.266 7.734 2.392 9.867 1.594 1.6 4.25 2.4 7.44 2.4h2.125c-1.327-2.667-2.39-5.6-3.187-8.8-3.19-1.067-6.112-2.133-8.77-3.467zm-3.985-26.666c-3.456 2.666-5.316 5.6-5.316 8.533s1.86 5.867 5.315 8.533c1.06-2.933 2.39-5.6 3.984-8.533-1.594-2.933-2.923-5.867-3.985-8.533zm24.444 32.266l-4.783-.8c.8 2.134 1.596 4 2.66 5.867 1.86-.533 3.984-1.333 6.11-2.4-1.594-.8-2.657-1.6-3.986-2.667zm-13.817-33.6l.797-4.8c-2.125.8-3.985 1.6-5.845 2.667.53 1.867 1.327 4 2.39 6.133.53-1.333 1.594-2.666 2.657-4zm41.452 2.4c-1.596-1.866-3.19-3.733-5.05-5.6-1.86-1.866-3.72-3.466-5.58-5.066-2.39-.267-4.783-.267-7.44-.267s-5.05 0-7.44.267c-1.86 1.6-3.72 3.2-5.58 5.066-1.86 1.867-3.454 3.734-5.05 5.6-.264 2.4-.264 4.8-.264 7.467 0 2.4 0 5.067.265 7.467 1.596 1.866 3.19 3.733 5.05 5.6 1.86 1.866 3.72 3.466 5.58 5.066 2.39.267 4.783.267 7.44.267 2.39 0 5.05 0 7.44-.267 1.86-1.6 3.72-3.2 5.58-5.066 1.86-1.867 3.454-3.734 5.05-5.6.264-2.4.264-4.8.264-7.467s0-5.067-.265-7.467zm5.844-2.4c1.063 1.334 1.86 2.667 2.923 3.734 1.063-2.134 1.86-4 2.392-6.134-1.86-1.066-3.72-1.866-5.847-2.666 0 1.866.266 3.466.53 5.066zm6.377-8.266c.533-4.267-.264-7.734-2.39-9.867-1.594-1.6-4.25-2.4-7.44-2.4h-2.126c1.33 2.667 2.392 5.6 3.19 8.8 3.187 1.067 6.11 2.133 8.767 3.467zm-20.193-5.6l4.783.8c-.797-2.134-1.594-4-2.657-5.867-1.86.533-3.986 1.333-6.112 2.4 1.33.8 2.66 1.6 3.987 2.667z"/><path fill="#2B6190" fill-rule="nonzero" d="M132.15 202.933l4.784.8c-2.125-1.6-4.25-3.466-6.11-5.333.265 1.6.796 3.2 1.327 4.533zm28.964-45.866l-4.783-.8c2.127 1.6 4.253 3.466 6.113 5.333-.266-1.6-.797-3.2-1.33-4.533z"/><path fill="#47BB7F" fill-rule="nonzero" d="M169.617 194.667l.797-4.8C168.82 192 166.96 194.133 165.1 196c1.33-.533 2.923-.8 4.517-1.333zm-45.968-29.334l-.8 4.8c1.596-2.133 3.456-4.266 5.316-6.133-1.33.533-2.923.8-4.517 1.333z"/><path fill="#FCBA63" fill-rule="nonzero" d="M140.654 153.333c-1.328.8-2.657 1.867-3.72 2.934 2.657-.267 5.315-.534 7.972-.534-1.33-.8-2.657-1.6-4.252-2.4zm11.957 53.334c1.33-.8 2.66-1.867 3.72-2.934-2.656.267-5.313.534-7.97.534 1.33.8 2.923 1.6 4.25 2.4z"/><path fill="#2B6190" fill-rule="nonzero" d="M182.37 165.067c-1.593-1.067-3.453-2.134-5.58-3.2-2.656-1.334-5.58-2.4-8.767-3.2.53 2.133 1.063 4.533 1.594 6.933 2.126.8 3.986 1.6 5.846 2.667 0 0 .266 0 .266.266 1.86 1.067 3.453 2.134 4.78 3.2 3.456 2.667 5.316 5.6 5.316 8.534 0 2.933-1.86 5.866-5.315 8.533.8 2.133 1.33 4.267 1.596 6.4 5.845-4 9.565-9.333 9.565-14.933s-3.187-10.934-9.3-15.2zm-58.72 29.6c-2.127-.8-3.987-1.6-5.847-2.667 0 0-.266 0-.266-.267-1.86-1.066-3.454-2.133-4.783-3.2-3.454-2.666-5.314-5.6-5.314-8.533s1.86-5.867 5.314-8.533c-.797-2.134-1.328-4.267-1.594-6.4-5.846 4-9.566 9.333-9.566 14.933s3.455 10.667 9.566 14.933c1.594 1.067 3.454 2.134 5.58 3.2 2.657 1.334 5.58 2.4 8.77 3.2-.8-2.133-1.33-4.266-1.86-6.666z"/><path fill="#FCBA63" fill-rule="nonzero" d="M178.65 147.733c-2.92-2.933-6.907-4.266-11.69-4.266-1.86 0-3.454.266-5.314.533-2.126.267-3.986 1.067-6.377 1.6-2.924 1.067-5.58 2.4-8.504 4 1.86 1.067 3.985 2.4 5.845 3.733 2.127-1.066 3.987-1.866 6.113-2.4 2.126-.8 4.25-1.066 6.11-1.333h2.127c3.19 0 5.846.8 7.44 2.4 2.126 2.133 2.923 5.6 2.39 9.867 2.127 1.066 3.987 2.133 5.58 3.2 1.33-7.2.267-13.334-3.72-17.334zm-37.996 58.934c-2.125 1.066-3.985 1.866-6.11 2.4-2.127.8-4.253 1.066-6.113 1.333h-2.124c-3.19 0-5.846-.8-7.44-2.4-2.126-2.133-2.923-5.6-2.392-9.867-2.125-1.066-3.985-2.133-5.58-3.2-1.328 7.2-.265 13.334 3.72 17.334 2.923 2.933 6.91 4.266 11.692 4.266 1.86 0 3.454-.266 5.314-.533 2.126-.267 3.986-1.067 6.377-1.6 2.923-1.067 5.58-2.4 8.503-4-1.86-1.333-3.72-2.4-5.846-3.733z"/><path fill="#2B6190" fill-rule="nonzero" d="M175.73 192.267V192c-1.86 1.067-3.72 1.867-5.847 2.667-1.594.533-3.19 1.066-4.783 1.333-.53.267-1.33.267-1.86.533-2.923.534-5.846 1.067-9.034 1.334-2.392.266-4.783.266-7.44.266-2.392 0-5.05 0-7.44-.266 2.39 1.866 4.783 3.733 7.44 5.333.53.267 1.063.8 1.594 1.067 2.657 0 5.58-.267 7.97-.534l4.784-.8c2.392-.533 4.783-1.066 6.91-1.6 3.187-.8 6.11-2.133 8.767-3.2 0-1.866-.53-3.733-1.06-5.866zM146.765 156.8c-.532-.267-1.063-.8-1.595-1.067-2.656 0-5.58.267-7.97.534l-4.783.8c-2.39.533-4.783 1.066-6.908 1.6-3.19.8-6.113 2.133-8.77 3.2.266 1.866.53 3.733 1.33 5.6v.266c1.86-1.066 3.72-1.866 5.844-2.666 1.595-.534 3.19-1.067 4.783-1.334.532-.266 1.33-.266 1.86-.533 2.923-.533 5.846-1.067 9.034-1.333 2.393-.267 4.784-.267 7.44-.267 2.66 0 5.05 0 7.44.267-2.92-1.6-5.313-3.467-7.704-5.067z"/><path fill="#57B7DF" fill-rule="nonzero" d="M170.946 178.4c.797-1.333 1.594-2.933 2.39-4.267-.796-1.333-1.86-2.666-2.922-3.733.266 2.4.266 5.067.532 8zm-50.752 7.467c.797 1.333 1.86 2.666 2.923 3.733-.266-2.667-.53-5.333-.53-8.267-.798 1.867-1.596 3.2-2.393 4.534zm62.177 9.066c-.264-2.133-1.06-4-1.593-6.4-1.063-2.933-2.39-5.6-3.986-8.533-1.06 1.867-2.39 4-3.72 5.867 1.064 2.133 1.86 4 2.393 6.133v.267c.53 2.133 1.063 4 1.328 5.6.533 4.266-.264 7.733-2.39 9.866-1.594 1.6-4.25 2.4-7.44 2.4h-2.126c-1.063 2.134-2.125 4-3.188 5.6 1.86.267 3.72.534 5.314.534 4.783 0 8.77-1.334 11.69-4.267 3.987-3.733 5.05-9.867 3.72-17.067zm-56.064-51.466c-4.783 0-8.77 1.333-11.692 4.266-3.985 4-5.048 10.134-3.72 17.334.266 2.133 1.063 4 1.595 6.4 1.06 2.933 2.39 5.6 3.984 8.533 1.063-1.867 2.392-4 3.72-5.867-1.063-2.133-1.86-4-2.39-6.133v-.267c-.533-2.133-1.064-4-1.33-5.6-.53-4.266.266-7.733 2.392-9.866 1.594-1.6 4.25-2.4 7.44-2.4h2.125c1.064-2.134 2.127-4 3.19-5.6-1.594-.534-3.454-.8-5.314-.8z"/><path fill="#47BB7F" fill-rule="nonzero" d="M146.766 134.4c-5.58 0-10.63 3.467-14.88 9.6-1.063 1.6-2.126 3.467-3.19 5.6-1.327 2.667-2.39 5.6-3.187 8.8 2.124-.533 4.516-1.067 6.907-1.6.797-2.133 1.594-4 2.657-5.867 0 0 0-.266.266-.266 1.063-1.867 2.126-3.467 3.19-4.8 2.656-3.467 5.58-5.334 8.5-5.334 2.924 0 5.847 1.867 8.504 5.334 2.126-.8 4.252-1.334 6.377-1.6-4.516-6.134-9.564-9.867-15.144-9.867zm14.348 68.533c-.797 2.134-1.594 4-2.657 5.867 0 0 0 .267-.266.267-1.06 1.866-2.124 3.466-3.187 4.8-2.657 3.466-5.58 5.333-8.503 5.333s-5.846-1.867-8.503-5.333c-2.126.8-4.25 1.333-6.377 1.6 3.986 6.133 9.3 9.6 14.88 9.6s10.63-3.467 14.88-9.6c1.063-1.6 2.126-3.467 3.19-5.6 1.327-2.667 2.39-5.6 3.187-8.8-1.86 1.066-4.25 1.6-6.643 1.866zm9.3-32.8c-.265-1.6-.53-3.2-.797-4.8-.53-2.4-1.063-4.8-1.594-6.933-.797-3.2-2.126-6.133-3.19-8.8-1.86.267-3.984.533-6.11 1.333 1.063 1.867 1.86 3.734 2.657 5.867.53 1.6 1.063 3.2 1.33 4.8.264.533.264 1.333.53 1.867.53 2.933 1.063 5.866 1.33 9.066.264 2.4.264 4.8.264 7.467s0 5.067-.265 7.467c2.124-2.4 3.72-4.8 5.313-7.467.266-.533.797-1.067 1.063-1.6-.266-2.933-.266-5.6-.532-8.267zm-38.263 32.8c-.53-1.6-1.06-3.2-1.327-4.8-.266-.533-.266-1.333-.532-1.866-.53-2.934-1.06-5.867-1.327-9.067-.266-2.4-.266-4.8-.266-7.467 0-2.4 0-5.066.266-7.466-2.126 2.4-3.72 4.8-5.314 7.466-.267.534-.8 1.067-1.064 1.6 0 2.667.265 5.6.53 8.267l.798 4.8c.532 2.4 1.063 4.8 1.595 6.933.796 3.2 2.124 6.134 3.187 8.8 1.86-.266 3.986-.533 6.112-1.333-1.064-1.6-1.86-3.733-2.66-5.867z"/><path fill="#57B7DF" fill-rule="nonzero" d="M162.974 163.467c-.265-.534-.265-1.334-.53-1.867-2.127-1.867-3.987-3.733-6.113-5.333-1.327-1.067-2.656-1.867-3.72-2.934-1.86-1.333-3.984-2.666-5.844-3.733-2.923-1.6-5.846-2.933-8.503-4-1.063 1.333-2.126 2.933-3.19 4.8 0 0 0 .267-.264.267 1.86.533 3.984 1.333 6.11 2.4 1.33.8 2.923 1.333 4.25 2.4.533.266 1.064.8 1.596 1.066 2.39 1.6 5.048 3.467 7.44 5.334 1.86 1.6 3.72 3.2 5.58 5.066 1.86 1.867 3.454 3.734 5.048 5.6-.53-2.933-1.063-6.133-1.86-9.066zm-10.363 43.2c-1.327-.8-2.92-1.334-4.25-2.4-.53-.267-1.063-.8-1.594-1.067-2.392-1.6-5.05-3.467-7.44-5.333-1.86-1.6-3.72-3.2-5.58-5.067-1.86-1.867-3.455-3.733-5.05-5.6.267 3.2.798 6.133 1.33 9.067.265.533.265 1.333.53 1.866 2.127 1.867 3.987 3.734 6.113 5.334 1.327 1.066 2.656 1.866 3.72 2.933 1.86 1.333 3.984 2.667 5.844 3.733 2.923 1.6 5.846 2.934 8.503 4 1.063-1.333 2.126-2.933 3.19-4.8 0 0 0-.266.264-.266-1.593-.8-3.453-1.6-5.58-2.4z"/><path fill="#FCBA63" fill-rule="nonzero" d="M175.994 168.267s-.265 0-.265-.267c-.533 1.867-1.33 4-2.393 6.133-.797 1.334-1.328 2.934-2.39 4.267-.267.533-.533 1.067-1.064 1.6-1.594 2.4-3.454 5.067-5.314 7.467-1.596 1.866-3.19 3.733-5.05 5.6-1.86 1.866-3.72 3.466-5.58 5.066 3.19-.266 6.11-.8 9.034-1.333.532-.267 1.33-.267 1.86-.533 1.86-2.134 3.72-4 5.315-6.134 1.06-1.333 1.86-2.666 2.92-3.733 1.33-1.867 2.66-4 3.72-5.867 1.596-2.933 2.924-5.866 3.987-8.533-1.328-1.6-2.923-2.933-4.783-3.733zm-45.703-4.8c-.53.266-1.327.266-1.86.533-1.86 2.133-3.72 4-5.313 6.133-1.063 1.334-1.86 2.667-2.923 3.734-1.328 1.866-2.657 4-3.72 5.866-1.594 2.934-2.923 5.867-3.985 8.534 1.327 1.066 2.92 2.133 4.78 3.2 0 0 .267 0 .267.266.532-1.866 1.33-4 2.392-6.133.796-1.333 1.327-2.933 2.39-4.267.266-.533.53-1.066 1.063-1.6 1.594-2.4 3.454-5.066 5.314-7.466 1.594-1.867 3.19-3.734 5.05-5.6 1.86-1.867 3.72-3.467 5.58-5.067-3.19.8-6.113 1.333-9.036 1.867z"/><path fill="#000" fill-rule="nonzero" d="M270.106 204.875c.265 0 .53 0 .796.268l2.122 2.143c-1.592 1.607-3.184 2.946-4.776 4.285-1.592 1.34-3.714 2.412-5.57 3.216-2.124.803-4.247 1.607-6.9 2.143-2.388.534-5.04.802-8.225.802-5.04 0-9.55-.803-13.53-2.678-3.98-1.608-7.696-4.286-10.614-7.5-2.92-3.215-5.308-6.965-6.9-11.518-1.59-4.554-2.387-9.643-2.387-15 0-5.357.796-10.447 2.387-15 1.592-4.554 3.98-8.304 6.9-11.518 2.917-3.214 6.632-5.625 10.877-7.5 4.245-1.875 8.756-2.68 14.062-2.68 4.775 0 9.02.805 13 2.412 3.715 1.607 7.164 3.75 10.348 6.43l-1.592 2.41c-.266.535-.796.535-1.327.535-.532 0-1.062-.268-1.858-1.07-.796-.805-2.123-1.61-3.715-2.412-1.592-.804-3.714-1.607-6.102-2.41-2.388-.804-5.307-1.072-8.49-1.072-4.246 0-8.225.804-11.675 2.144-3.45 1.607-6.633 3.482-9.286 6.428-2.653 2.68-4.51 6.16-6.102 10.18-1.327 4.017-2.123 8.57-2.123 13.392 0 5.09.795 9.642 2.122 13.66 1.326 4.018 3.45 7.232 6.102 10.18 2.653 2.677 5.572 4.82 9.02 6.427 3.45 1.34 7.165 2.144 11.145 2.144 2.652 0 4.774-.268 6.897-.535 2.123-.27 3.714-.805 5.572-1.61l4.775-2.41c1.326-1.07 2.918-2.142 4.245-3.48.265-.27.265-.27.53-.27 0-.535.266-.535.266-.535zM289.74 143.268v73.66h-4.776v-73.66M326.354 165.768c3.45 0 6.898.536 9.552 1.875 2.918 1.34 5.306 2.946 7.163 5.357 1.857 2.143 3.45 5.09 4.51 8.304 1.06 3.214 1.592 6.696 1.592 10.714 0 4.018-.53 7.5-1.592 10.714-1.06 3.214-2.388 5.893-4.51 8.036-1.858 2.143-4.246 4.018-7.164 5.09-2.92 1.338-6.103 1.874-9.552 1.874-3.45 0-6.898-.536-9.552-1.875-2.918-1.34-5.306-2.946-7.163-5.09-1.86-2.142-3.45-5.088-4.512-8.035-1.06-3.214-1.592-6.696-1.592-10.714 0-4.018.53-7.5 1.592-10.714 1.062-3.215 2.388-5.893 4.51-8.304 1.858-2.143 4.246-4.018 7.164-5.357 2.92-1.34 6.103-1.875 9.552-1.875zm0 47.946c2.92 0 5.572-.535 7.694-1.607 2.123-1.07 3.98-2.41 5.572-4.553 1.592-1.875 2.653-4.286 3.45-6.965.795-2.68 1.06-5.894 1.06-9.108 0-3.214-.265-6.428-1.06-9.107-.797-2.68-1.858-5.09-3.45-6.964-1.592-1.874-3.45-3.48-5.572-4.553-2.122-1.07-4.775-1.607-7.694-1.607-2.92 0-5.572.536-7.694 1.607-2.123 1.072-3.98 2.41-5.572 4.554-1.592 1.876-2.653 4.286-3.45 6.965-.795 2.68-1.06 5.893-1.06 9.107 0 3.482.265 6.43 1.06 9.107.797 2.678 1.858 5.09 3.45 6.964 1.592 1.875 3.45 3.482 5.572 4.553 2.122 1.072 4.775 1.607 7.694 1.607zm63.677-40.982c-.264.536-.53.804-1.06.804-.265 0-.796-.268-1.326-.536-.53-.536-1.327-.804-2.388-1.34-1.062-.535-2.123-1.07-3.45-1.34-1.326-.534-3.183-.534-5.04-.534-1.858 0-3.45.268-5.042.803-1.592.535-2.653 1.34-3.714 2.142-1.062.804-1.858 1.875-2.388 2.947-.53 1.07-.796 2.41-.796 3.75 0 1.606.53 2.945 1.326 4.016.796 1.072 1.858 1.875 3.184 2.68 1.327.803 2.654 1.338 4.51 1.874 1.593.536 3.45 1.07 5.042 1.607 1.592.536 3.45 1.072 5.04 1.875 1.593.536 3.185 1.607 4.512 2.41 1.326 1.072 2.387 2.144 3.183 3.483.796 1.34 1.327 3.214 1.327 5.09 0 2.142-.265 4.285-1.06 6.16-.797 1.875-1.86 3.482-3.45 4.82-1.592 1.34-3.45 2.412-5.572 3.216-2.123.804-4.776 1.34-7.43 1.34-3.448 0-6.632-.536-9.02-1.607-2.653-1.072-4.776-2.68-6.9-4.554l1.063-1.608c.266-.268.266-.536.53-.536.267-.267.532-.267.797-.267.53 0 1.062.266 1.592.802s1.326 1.072 2.387 1.875c1.06.536 2.388 1.34 3.715 1.875 1.592.536 3.45.804 5.57.804 2.124 0 3.98-.268 5.573-.804 1.592-.536 2.92-1.34 3.98-2.41 1.06-1.072 1.857-2.143 2.388-3.483.53-1.34.796-2.68.796-4.286 0-1.608-.532-3.215-1.328-4.286-.796-1.072-1.857-2.143-3.184-2.947-1.326-.802-2.918-1.338-4.51-1.874-1.592-.535-3.45-1.07-5.04-1.607-1.858-.536-3.45-1.072-5.042-1.876-1.592-.535-3.184-1.34-4.51-2.41-1.327-1.072-2.39-2.143-3.185-3.483-.795-1.338-1.325-3.213-1.325-5.356 0-1.875.265-3.482 1.06-5.09.797-1.606 1.858-3.213 3.185-4.285 1.326-1.34 3.184-2.144 5.306-2.947 2.123-.804 4.245-1.072 6.9-1.072 2.917 0 5.836.537 8.224 1.34 2.388.804 4.51 2.144 6.367 4.02l-.796.802zm34.76-6.964c2.917 0 5.305.536 7.958 1.34 2.388 1.07 4.51 2.41 6.368 4.285 1.857 1.875 3.184 4.286 4.245 6.964 1.063 2.68 1.593 5.893 1.593 9.375 0 .804 0 1.34-.265 1.607-.265.267-.53.535-1.06.535h-36.35v1.07c0 3.75.53 7.234 1.326 9.912.796 2.947 2.123 5.357 3.715 7.232 1.59 1.874 3.448 3.48 5.836 4.285 2.388 1.07 4.775 1.34 7.694 1.34 2.388 0 4.776-.27 6.633-.804 1.857-.535 3.45-1.07 4.51-1.874 1.327-.804 2.123-1.34 2.92-1.875.795-.535 1.326-.803 1.59-.803.532 0 .797.268 1.062.536l1.327 1.607c-.796 1.07-1.857 1.875-3.184 2.946-1.327.804-2.918 1.608-4.51 2.143-1.592.535-3.45 1.07-5.307 1.606-1.856.268-3.713.536-5.57.536-3.45 0-6.634-.536-9.287-1.875-2.918-1.07-5.306-2.946-7.164-5.357-2.123-2.41-3.45-5.09-4.51-8.304-1.062-3.214-1.593-7.232-1.593-11.517 0-3.484.53-6.966 1.592-9.912 1.06-2.947 2.387-5.625 4.51-8.036 1.857-2.143 4.245-4.018 7.163-5.09 2.123-1.338 5.307-1.874 8.756-1.874zm.264 3.482c-2.653 0-4.776.536-6.898 1.34-2.123.803-3.715 1.874-5.307 3.48-1.593 1.61-2.654 3.216-3.715 5.36-.796 2.14-1.592 4.552-1.858 7.23h33.166c0-2.678-.266-5.09-1.062-7.23-.795-2.144-1.856-4.02-3.182-5.36-1.327-1.606-2.92-2.677-4.776-3.48-2.123-.804-4.245-1.34-6.368-1.34zm29.45 43.93c0-.537 0-1.34.266-1.876.265-.536.53-1.072 1.06-1.608.532-.535.797-.803 1.328-1.07.53-.27 1.06-.27 1.857-.27.53 0 1.327 0 1.858.27.53.267 1.06.535 1.592 1.07.53.536.795.804 1.06 1.608.266.535.266 1.07.266 1.875 0 .802 0 1.338-.264 1.874-.266.535-.53 1.07-1.06 1.34-.532.535-.797.802-1.593 1.07-.53.268-1.062.268-1.858.268-1.326 0-2.388-.536-3.184-1.34-1.06-.803-1.325-2.142-1.325-3.213zm29.717-64.02c0 .536 0 1.072-.264 1.608-.266.536-.53 1.07-1.062 1.34-.53.535-.796.803-1.326 1.07-.53.268-1.062.268-1.592.268s-1.06 0-1.592-.267c-.53-.27-1.06-.537-1.327-1.073-.53-.536-.796-.803-1.06-1.34-.266-.535-.266-1.07-.266-1.606 0-.535 0-1.07.266-1.874.265-.536.53-1.072 1.06-1.34.532-.535.797-.803 1.328-1.07.53-.27 1.06-.27 1.592-.27.53 0 1.06 0 1.592.27.53.267 1.06.535 1.326 1.07.53.536.796.804 1.062 1.34.265.803.265 1.34.265 1.875zm-1.856 17.41v50.36h-4.776v-50.36h4.776zm34.492-.802c3.45 0 6.898.536 9.55 1.875 2.92 1.34 5.308 2.946 7.165 5.357 1.858 2.143 3.45 5.09 4.51 8.304 1.063 3.214 1.593 6.696 1.593 10.714 0 4.018-.53 7.5-1.592 10.714-1.06 3.214-2.386 5.893-4.51 8.036-1.856 2.143-4.244 4.018-7.163 5.09-2.918 1.338-6.102 1.874-9.55 1.874-3.45 0-6.9-.536-9.553-1.875-2.92-1.34-5.306-2.946-7.164-5.09-1.857-2.142-3.45-5.088-4.51-8.035-1.06-3.214-1.592-6.696-1.592-10.714 0-4.018.53-7.5 1.592-10.714 1.06-3.215 2.388-5.893 4.51-8.304 1.858-2.143 4.245-4.018 7.164-5.357 2.92-1.34 6.102-1.875 9.552-1.875zm0 47.946c2.918 0 5.57-.535 7.694-1.607 2.123-1.07 3.98-2.41 5.572-4.553 1.592-1.875 2.653-4.286 3.45-6.965.795-2.68 1.06-5.894 1.06-9.108 0-3.214-.265-6.428-1.06-9.107-.797-2.68-1.858-5.09-3.45-6.964-1.592-1.874-3.45-3.48-5.572-4.553-2.123-1.07-4.776-1.607-7.694-1.607-2.92 0-5.572.536-7.695 1.607-2.12 1.072-3.98 2.41-5.57 4.554-1.592 1.876-2.654 4.286-3.45 6.965-.796 2.68-1.06 5.893-1.06 9.107 0 3.482.264 6.43 1.06 9.107.796 2.678 1.858 5.09 3.45 6.964 1.59 1.875 3.45 3.482 5.57 4.553 2.124 1.072 4.777 1.607 7.696 1.607z"/></g></svg>